<svg width="500px" height="214.25px" xmlns="http://www.w3.org/2000/svg">
  <style>
    @media (prefers-color-scheme: light) {
      path.sea {
        fill: #064273;
      }

      path.ground {
        fill: #94ba32;
      }
    }

    @media (prefers-color-scheme: dark) {
      path.sea {
        fill: #000000;
      }

      path.ground {
        fill: #FCBB30
      }
    }
  </style>
  <path class="sea" transform="scale(0.25)"
    d="M214.25 0A214.25 214.25 0 0 0 0 214.25v428.5A214.25 214.25 0 0 0 214.25 857h1571.5A214.25 214.25 0 0 0 2000 642.75v-428.5A214.25 214.25 0 0 0 1785.75 0H214.25z" />
  <path class="ground" transform="scale(0.25)"
    d="m1994.4 606-.4.4-.8 1.1-.3.1-.7.4-.2.6-.4.2-.2.3-.1.2.3.1.6-.3.1-.1.3-.3.2-.3.6-.3.3-.3.6-.3v.3l-.5.7-.2.1.1.6-.3.3-.3-.3h-.4l-.5.1-.4.3-.7.1h-1l.5-.5-.4-.2-.6.2-.4.2v.2l-.3.1-.2.1-.1.4-.2.3-.3-.1v-.2l-.4-.1-.4.2-.2.5-.3.2h-.3v-.7l-.2-.4.1-.2-.1-.1-.6.2v-.4l.4-.3h.1l-.1-.5.3-.1.5.3.6-.4h.2l.3-.3h.2l.3-.3v-.2l.8-.1.9-.3.3-.1.4.1.5-.2.2-.4h.2l.2-.4.4.1.1-.2.2.1 1-.5.1.3.2-.1.2.1.3-.3.5-.2.1.1-.5.4zm-1 5-.2-.2.1-.2.5-.5.3-.5-.3 1.1zm-14.9.4-.2.3-.5.3v-.3l.4-.4zm11.4 2-.2.1.2-.9h.4l-.1.4zm-6.3-.2-.1.4.3.2.1.3.3.4.3.1.1.3h.2l.1.4-.3.5.1.2.1.5-.3.2v.5h.2l.1.5-.3.3-.6.2-.1-.2-.3.1-.1.2-.3-.3-.8.3-.8.7-.3-.1-.4.2-.3-.1-.6.1-.3-.2-.9-.3-.3-.1-.6-.1-.2-.1-.5-.2-.2-1 .3-.7h.3l.3-.1.1-.5.3-.1.1-.4-.2-.2.6-.4.4-.5.1.1.6-.5h.2l.9-.4.6.2.3-.1.5-.2.6-.1.3-.3zm2.2 2.5h-.1l-.1-.4.2-.2.4-.1v.4l-.2.2zm2.6 1.4.1.5-.2.6-.1-.2-.1-.4h-.2l.1-.5.2-.1zm-5.9 6.1-.2.1-.2-.1.2-.2zm-.9.1.2.2.3.1v.3l-.5.2-.5-.3-.5.3h-.3l-.2.3.1.3-.4-.1-.1.2-.4-.1-.1.1-.4-.2.3-.1.2-.1.2-.2.4.1.3-.3.2-.3.5-.1.5-.3zm7.5 1.6-.3.1.1-.4zm-1346.5-228 .4.1.5.4-1.3.3-.3.1-.4-.3.1-.6.2-.1-.1-.6.1-.2.3-.2.3.4v.4zm-1.4.4h.3V397.6l-.2.1V398.9l-.2.2-.6.3v-.2l-.2-.2-.1-.5v-.5l-.1-.5v-.3l.2-.3.3-.1.5.3zm1.8 2.6h-.3l-.2-.4.1-.2.3-.3.3.2.1.3v.2zm652 235.9h.4l.4.2.3.3v.3l.1.5.3.2.2.2.1.2-.2.6-.1.4-.2.2-.4.1h-.9l-.2-.2-.8-.4-.3-.5v-.3l-.3-.6.1-.4.2-.2.2-.4h.1l.5-.2zm-54.8-52.7.2.3.5.2v.3l-.2.2.1.2-.3.6.1.2-.3.1-.2-.3v-.3l.2-.2-.2-.7-.1-.1-.1-.2zM912.9 314.7v.4l-.2.5-.7.5-.5.1-.4.5-.5-.2v-.1l.2-.4v-.4l.2-.3.3-.2h.3l.3-.3h.5l.1-.1.2-.5.2-.1.2.2zm-24.1 2 .3-.1.2.3.2.5-.2.3.1.4-.6 1-.1-.1-.1-.4-.4-.9-.1-.3-.1-.2.2-.4.3-.2zm19.6 4.5-.3.4-.4.1-.3-.1h-.4v-.2h.3l.6-.2.4-.3.3-.3.1-.5.1-.3.2-.5.3-.4.3-.6.2-.8.2-.2.4-.1.3.3.1.5-.1.5-.1.5v.5l-.1.1-.3.7-.3.3-.6.1-.7.3zm-10.2-2.8v.2l-.6.3-.4.5-.3.2v.4l-.4.7-.1.4-.5.6-.1.2h-.2l-.6.2-.1-.1-.1-.4-.3-.4-.1-.2-.2-.3v-.3l-.4-.6.5-.3.3.2.6-.2h.4l.5-.2.5-.4v-.2l.6-.3h.6l.3-.1zm-6.1 3.5h-.2l-.3-.2-.2-.3.1-.4.1-.3h.6l.5.4.1.3-.5.5zm9.9-.8v.5l.2.4-.2.7.1.3-.4.4-.5.2-.2.2-.6-.2-.5-.5-.2-.4v-.6l.6-.4.1-.5v-.2l.6.1h.4l.3.1zm-13.6 2.3-.3.5-.4.5-.3-.4h-.4l-.2-.2.2-.3.4.1.4-.4.3-.2.2.1zM644 406.9v.2l.4-.1-.2.5.2.2v.2l.2.2.2.9-.3.3-.1-.4-.1.1-.6-.1h-.4l-.2-.3.6-.5h-.4l-.4-.4-.1-.5-.2-.5.3-.4.4.1.5.3zm-11.2-18.2h-.1l.1-.2.1.1zm1.5.9-.2.1v-.2l.1-.1zm-32.3 35h-.2l-.1-.5.1-.3-.1-.3-.4-.1-.3-.3.1-.3 1.2.6-.1.2v.4l-.2.2zM17.4 588.5l.6.6.2.7-.1.3.1.3h-.3l-.3-.2-.3.2-.9.1-.3-.3-.2-.4-.2-.1-.3-.3-.5-.4-.2-.2v-.2l.4.1.3-.1.6-.2h.4l.5-.1h.3zm4.5 2.8.3.1.3.1.3.2-.1.3h-1l-.3-.1-.3.1-.2-.1-.4-.2-.3.1-.3-.2-.2-.2-.6-.3.1-.4.4-.2h.9l.9.4.5.1zm1901.5-4.8-.1-.1.1-.5.2.2zm5 4.2-.3.2-.2.1v.2l-.2.1v-.3l-.2-.2-.1-.3.1-.4.2-.1.4-.2.1.2.1.4v.1zm-.6 1.9.4.3-.1.4-.3.3-.2.2h-.6v-.4l.1-.4.2-.3zm-4.2 9.3-.9-.1-.6.3-.1.2h-.2l-.1-.6-.2-.1-.4-1 .4-.8v-.4l-.1-.2v-1.4l-.1-.3v-.5l.2-.3v-.3l.2-.3v-.2l.3-.1.1.5.2.4.2.3.1 1.3-.1.8v.1l.6-.1.3-.3.2-.8v-.2l.3-.2.3.1-.1.4v.9l.3.1v.5l-.2.1.3.4-.2.2v.5l.2.5-.1.2h-.3zm6.3-1.4v.2h-.3l.1-.3.2-1.3v-.1l.1-1.2.2.1-.1 1.3.1.3-.1.5zm-1.9.7h-.7l-.3-.1v-.2l.9-.7.5-.2.5-.1v.2l-.3.4-.2.3zm1.3 3.3-.2-.1.1-1.2-.1-.3.1-.5.3-.8.1-.5.2.6-.1.3v1.6l-.1.6zm-5.7-2.6.4-.3.1.1.1.3h-.5zm.5 1h-.3l-.5-.3v-.1l.2-.3.2-.1.5.1-.1.4zm.6 2.4.2.3.6.4.7.7.1.1v.4l.2.3-.3.2-.4.4v-.2l-.3-.1h-.4l-.2.1v.2l-.4.2-.3-.1v-.7l-.1-.6.1-.6.1-.5-.2-.5-.6.3-.2-.2-.1-.3v-.3l.3-.3v-.4l.1-.3.3-.1.6.3-.1.2.2.5-.1.2zm4.7 1.3-.2.2h-.6l-.3.1-.2-.2-.4-.1-.5-.4.1-.2.5-.2.4-.1.4-.3.1-.3h.2l.1.3v.6l.5.4zm-.2 1.4h-.1l-.1-.3h.2zm-.9.2.1.5v.2l.4.1.2.5h.5v.4l-.1.1-.3-.3-.3-.1-.6.2-.3-.1-.1-.2-.1-.4.2-.5.2-.3zm1.6 2.4-.1-.3h.3zm-2.3 3.9.6-.1.1.1.2.6.2.3.1.1-.4.6-.8.2-.3-.3-.1-.5-.3-.1-.4.3-.1-.1.2-.4.4-.3.4-.5zm3 7.6h.3l.1.2-.5.1.1.3.4.2.1.3-.1.4-.4.1-.4-.3h-.4l-.2-.2-.3-.2.1-.4v-.3l.2-.5.3-.4h.5l.2.1-.1.4zm0 5.9h-.2l-.3-.1-.4-.5-.1-.4v-.4l.2-.2.1-.4.3-.1h.4l-.2.3v.5l.7.5-.3.3zm1.2 3.8-.5-.2.2-.4.5-.1.2.4-.1.2zm-1308-248 .4.3-.2.2-.3-.2h-.5l.2-.2zm1.4.2-.2.2h-.5v-.2l.3-.1zm-.7 3.8.3.3-1.1.2-.1-.5.7-.2zm1.6-4.4-.4.2h-.1l-.3.2-.1-.1.1-.3.6-.1zm16.1 34-.1.1-.5-.3v-.4l.2-.3.2-.5h.4l.1.4-.1.8zm1356.7 139.2v-.2h.1v.1zM645.2 429l-.1.5-.3.1-.4.3h-.2l-.7.4-.2-.2.3-.3.7-.5zm-2.4 3.2-.2.5-.3.4-.2.1-.1.4.2.6-.2.1v.7l.2.3.2.2-.2.2-.1.3v.7l-.2.1-.4.2-.5.1h-.3l-.5.1-.5-.1-.4.1-.3-.1-.5.2-.4-.2h-.6l-.3.2-.3-.1.5-.2.3-.3.4-.1.4-.3.2-.3.6.1.3-.4-.2-.8.2-.4v-.7l-.3-.4-.3-.1-.4-.1-.1-.1.4-.3 1.1-.1.2-.2h1.1l.1-.1 1.2-.2zM1.4 602l-.1.1-.3-.1.1-.2h.3zm14.1 19.3-.5.3h-.2l-.1-.1.3-.5.3.1zm-4.4 7.5-.2.1-.1-.5.2.1zm.8 8.6h.3l.4.3.3.1.2-.4.3.3-.3.3.1.2-.1.2-.2-.1-.3-.3-.7-.2zm2.8 2.1-.5-.3v-.2l.3-.2zm572.5-278.6v.5l-.5-.2-.1-.3.1-.1zm-2.2.6.3.4.6-.1-.2.2h-.6l-.4-.2zm2.7.1h.7l.3.4h-.3l-.3-.1-.5.1-.1-.3zm712.7 169.9.4.4-.2.3-.2-.3-.3-.2.2-.5zm-51.9 30.3-.2.1h-.4v-.2zm.5.3-.3.2h-.5l-.4.2h-.4v-.2h.5l.4-.1.4-.3h.2zM634.2 386v.1l-.4-.1v-.1zm394.3 105.5-.1.3-.2.1-.3-.1v-.3l.2-.1v-.3l.2-.2.3.1zm-4.6 9.8h-.2l-.2.3h-.2l-.1-.4-.2-.8v-.3l.4-.5.3-.1.3-.3.4.1.2.4.1.3-.1.4-.2.3-.3.4zm848.3 43.2.3.1.4.5.3.2.3.1.3.3.8.4.4.5v.4l.1.6.2.2.3.3h.2l.1.4.7.3.4-.1.1.1v.3l-.3.1-.2.3-.5-.2-.8-.4h-.5l-.3-.4-.7-.4-.6-1-.6-1-.5-.3-.7-.7v-.7l.3-.2.3.1zm-2.9 1.5v.5l-.2-.2v-.2zm-1.7.9.3.2-.1.3-.7.2-.3-.3.3-.6.2-.1zm-1.5 1.9.2.3-.2.2-.3-.1-.1-.1zm12.5.9-.5.1-.2-.2.3-.4.3.1zm2.7-.4-.2.5-.1-.2zm-4.3 0h.5l-.2.2-.3-.1zm4.5.6.2.2.2-.1.3.2-.1.2-.3-.1zm1.5.6.2-.1.5.3.3.1.2.2.3.5.3.1.3.3v.3l.5.1v.3l.3.1.3-.1.1.1.4.2.1.2.3-.1.3.1.1.3.4.3.3.3.4.3 1 1-.3.4.3.5.1.6-.3-.1-.3-.4-.7-.8-.4-.1-.5-.4-.6-.1-.1-.3-.6-.2-.5-.5h-.2l-.8-.6-.5-.3v-.2l-.4-.2-.2-.2-.2-.4-.4-.3-.1-.2v-.4l-.4-.5-.2-.1v-.3zm-.9 0 .3.2-.2.1-.5.1-.1-.3.2-.2zm-10.3-.1.4.5v.1l.7.4-.1.3-.6.7v.3l-.3.1v-.4h-.2v-.4l-.2-.4-.3-.2-.1-.3.1-.3.2-.2.2-.2zm3 3.5-.3.2-.1-.1h-.4l-.3-.3-.1-.3-.1-.3.1-.3.3-.4.5-.2.2.2.3.5v.6zm-3.4.5h-.1l-.2-.8.1-.3v-.4l.2.1.1.4v.7zm5.9 0-.1.3h.7l.4.7v.2l.2.3.1.5-.2.2v.3l-.6-.2-.2-.2h-.3l-.4-.3-.1-.2-.1-.3.4.1-.3-.8-.1-.2-.5.1-.2.1h-.4l-.3.4-.4-.2v-.6l.2-.2h.4v-.4l.4-.6.4-.3.3-.2.4.3.2.4-.1.7zm-3.1-.2.4.1.1.1.1.5h-.2l-.2-.4zm.1 1-.2-.4-.3-.3h.4zm20.7.3.4.8.6.8v.3l-.4.2v.8l.1.2h.2l.2.3.5.4.1.5.1.3.2.2-.2.2.3.3-.1.1.1.5-.2.2.3.3.1.5.2.5v.6l-.1.1-.3-.3-.3-.5v-.3l-.3-.4-.4-.3-.3-.3-.5-.6-.4-.3-.3-.9-.2-1-.2-.7v-.5l-.1-.4.4-.4-.1-.3-.5-.7-.1-.3.1-.1.4.1.2.1.3-.3zm-6.5.8.2.2-.1.2-.2-.1-.6-.5.2-.4.3-.1.2.2-.1.3zm-12.9.5-.2.1-.2.5.4.5-.5-.2v-.2l-.1-.3-.4-.4v-.2l.4-.2.1-.3.4-.3.3.2v.4zm3.6-.1.2-.1h.4v.2l-.4.3.2.2v.3l-.4.4-.2.1-.3-.1-.4-.4.1-.6.3-.1.2-.4.3-.1zm.9 1.8-.3-.2.1-.3.3-.3v.5l.1.2zm-3.4-.8.2.3-.1.3-.8-.4.5-.3zm8.5 1.8.1.2.2.1-.2.4-.4.2-.3-.4zm6.6.5-.2.4h-.1l-.4-.3-.3.1-.2-.1-.1-.2.3-.1.2-.2.5.1zm0 0 .5.5-.3.3-.3-.2v-.1zm-2.3 2.4h.3l.3-.1.4.1.1-.1h1.3l.2.3.3.1.2.3h.2l.2.1.4.4v.6h.2l.4.2.1.3v.6l-.1.1-.7.2-.2.1-.4-.1-.4-.2h-.4l-.1-.2-.5-.3h-.6l-.5.1h-.5l-.5-.1-.3-.2-.3.1-.3-.4-.3-.2-.3-.8-.2-.4.2-.2-.1-.2v-.7l.1-.3.6-.3.4.2.4.5.1.3zm8.4-.2.3.9.2.4v.4l.1.5-.2.3-.4-.7-.1.3-.3-.5.1-1 .1-.2v-.3zm2.9 1.8-.1.2v.7l-.2-.2v-.5zm-4 3.4.3-.1.6.3.5.5.3.3h.2l.2.2h.2l.3.3.3-.1.4.1.2.2h.4l.3-.1.2.3.2.8.3.3v.5l-.2.2.1.3-.4-.2-.3.2-.3-.1-.5-.3h-.2l-.6-.2-.4-.1-.2-.3-.3-.2-.3-.1-.2-.3-.4-.2.2-.4-.1-.4v-.4l-.2-.1-.6-.2-.3.1-.1-.2.1-.3.1-.3zm26.3 2.8.1.1h.3l-.1.4-.5.2h-.3l-.4.1-.4.6-.1-.3-.3.1-.2-.2v-.3l.5-.1v-.2l.3-.4.7.1zm2.3 3.9-.2.3-.3-.2v-.2l.3-.2zm-36.9 1.5h.2l1 .8.5.3.9.7-.1.3h-.2l-.2.2-.2-.3h-.1l-.2-.2-.1-.4-.4-.1v-.3l-.3-.1-.1.1h-.2l-.9-.4-.2-.4.3-.4zm38.3.6.3.2-.1.4h.3v.2h-.8l-.3-.5.2-.3zm-1732.6-18 .9.1.3.3v.2l-.4.3h-.8l-.1-.5-.1-.4zm3.7.6.3.1.1.1-.6.2-.1-.3zm-2.4 3V562.4h-.3l-.3-.4.3-.3zm6.9 2.6v.3l-.4.1h-.6v.3l-.4-.1-.2-.2-.1-.3.7-.4h.3l.2.2zm-1.2 1.6h-.2v-.4l.2-.3.3.2-.2.2zm3.1 3.5h-.3v-.4l-.2-.3.4.1.1.4zm-38 35.9-.3.1.1-.3zm-28.3 2.9.2.1v.5l-.4-.2-.1-.3zm1 1.8-.3.2h-.3l-.2-.8.2-.2.7.8zm2.1-.4-.2.1-.2-.3.3-.1zm7.6 4.3-.2.6-.5-.2.1-.3.5-.2zm3 1.5.7.2.3.4v.3l-.2.1-.5-.1-.4-.6-.1-.2-.6.2h-.2l-.6-.1-.2-.4-.3-.5v-.3l.1-.2.5-.1h.5l.5.2.2.4.1.6zm47.7 1-.2-.1.2-.6.5-.4h.3v.2l-.2.4Zm6.2 24.7-.1.1-.3-.2.2-.2zm-10.3 38.1-.1-.1-.2-.3.1-.2.3.2zM612.2 383l.6.1h.6l.3.1.6-.1.3.1.4-.1.2.1.5-.1.4.1h.3l.8.2v-.2l.6.2.1-.1.8.1.2.2h.2l.6.3.2-.1-.1.7.2.3-.9.3-.3.4-.3.6-.3.2-.3.1h-.4l-.6.1-.3.2-.7-.1-.2-.2-.5.2-.3-.3-.7.2-.9-.1-.3.1-.6.1-.2.1-.2-.2-.4-.1-.3.2-.6-.1.3-.7v-.4l.2-.4-.2-.6-.2-.1-.1-.4.4-.2.2-.1v-.5l.4-.2zm9.5 2.4h-.2l-.9.3h-.6l.2-.2.4-.2.4-.1.6.1zm-14.6.5-.3-.2.1-.2h.3l.1.1zm1140.6 67.2-.2.4.1.1-.2.6.1.2-.5.2-.2-.7.3-.2-.2-.2.3-.6.3-.1zm185.3 52.2h-.2l-.1-.3h.3zm-34.6 123.4-.2.2-.1-.4.2-.2zm2.3 2.4-.3-.1.1-.4zm-1.1-.3.2.1.5.9.3.3.3-.1.2-.3.9.5.3.5.7.6.3.4.1.3.4.4.1.2h.2l.3.3.9.2.1.3v.4l.3.4.4.1-.3.5.1.2.4.5h.1l.4.5-.1.4.7.2.4.5h.3l.3.2.5.4-.1.3h.3l.4.5.6.4v.2l.3.1.3.3v.2l.3.6.4.4.1-.1.4.6.5.1.3.3v.4l.1.4.1.1-.2.6-.7.4-.1-.3-.3.1-.3.3-.6-.8h-.4l-.1-.2h-.2l-.2.3-.9-.9h-.2l-.4-.5.1-.8h-.7l-.3-.2-.1-.2-.2-.1h-.3v-.3l-.2-.5-.4.1-.8-.5-.1-.2v-.3l-.3.2-.6-.3-.1-.4-.4-.3-.2-.5-.5-.1.2-.2-.3-.3-.3-.1-.3-.7v-.4l-.2-.3h-.3l-.2-.6.1-.2-.7-.4-.3-.2-.4-.6.3-.2-.2-.2-.2-.3v-.5l-.5-.3v-.6l-.2-.3h.3l.1-.3-.1-.2h-.6l-.2-.3.5-.7-.3-.3zm13.9 2.4-.2-.4h.4l.1.4zm0 0-.3.6-.1.3h.3l-.5.5-.2.2-.1-.2.3-.4.2-.5zm3.4 1.6-.2.5v.4l-.2.3.3.2.2.1.1.2-.1.2.3.4h-.2l-.2.5-.2.2-.3-.1-.2-.3-.1-.2-.6-.1-.3-.5v-.2l-.1-.3h.3l.3-.2.4-.3.1-.3-.4-.2-.4.1.2-.4.3-.1.2.1.4-.3zm2.7 4.3-.1.1.2.4h.3l.4-.2-.1.6-.2.2-.1.4-.5.3-.4-.2v-.1l-.3-.3.1-.2-.2-.2.1-.4-.1-.4h.1l.4.1zm-4.4 7.8-.2.1-.2.4-.4-.2.2-.5.1-.2.3.1zm-575.7-18.2-.3-.3.4-.2.3-.1.2.1-.1.2zm-31.8 2.1.4.9-.2.6-.4.4.1.3-.3.3-.5.2h-.5l-.6-.1-.1.1-.3-.3.2-.2.1-.4.1-.7.2-.4.5-.4.1-.2.2-.5.4-.3.4.1zM638.2 393.9l.2.4v.3l-.2.2-.2-.1-.1-.3zm1161.3-12.3-.4-.1v-.3l.2-.1.2.2zm1.2 4.3-.1-.2v-.5l.3-.1.2.3zm1.9 11h-.3l-.1-.2h.4zm1.9 7.5-.2.2.1.3h-.4v-.7l.1-.2.4-.2-.1.5zm-.5 1.6h-.2l-.3-.6.1-.3h.3v.3l.2.2zm-1.5 5.1-.1.1-.2-.1-.1-.2.5-.2.2.2zm-740.2-140.5-.5-.1v-.2l.4-.1.4.3zm1.6 1.1-.2.3-.5-.2-.5-.3v-.5l-.1-.1h.6l.4.3.2.2zM1953.8 456l1 .4h-.2zm-550.9 18.8v.2l-.2-.1.2-.2zM634.2 386l-.4-.1.2-.3.3-.1zm9.5 27.8-.2-.2-.4-.2-.1-.2v-.6l.1-.2.7-1.1.3.2v.7l-.1.8-.1.4zm-8.1-23.3-.1.3h-.2l-.4-.2-.2-.2.3-.4.5.4zm.7 1.5h-.3l-.1-.2.2-.4h.2l.1.2zm1164.5 23.5-.1.4v.6l-.1.3h-.3l-.2-.3-.1-.5v-.5l.6-.5.1-.2.1-.5.2-.1.1.2.4.1-.2.5zm-1161.6 9-.4.3-.2-.1-.1-.5.2-.5.3-.4h.3l.1.3-.1.7zm1127.3 16 .1.3h-.3l-.3.5-.1-.1.3-.8.4-.1zm114.7 16.6h.4l.3.2.1.4-.2.1.1.2-.1.2h-.6l-.2-.2v-.2l-.2-.3v-.3zm28.2 10.6-.2.3-.5-.1v-.2l.5-.4zM957.2 108.3h-.2l-.2-.4.1-.3.2.4zm.9 0-.3.4-.3-.2h-.3l.2-.3-.1-.4.1-.1.2.4zm-2.2.6-.4-.2-.3-.3-.1-.3.1-.1.4-.1h.3l.6.4-.1.2.1.2.6.2v.2l-.4.3zm2.4-.5-.2-.2.3-.2zm-3.68.64.08.16h.3v.3h-.4l-.2.2-.6-.2-.2-.1-.2-.3.5-.1.1-.1.557.093-.257-.193.2-.8.5.1.3.5v.1l.6.2.3.5.3.2-.1.6-.5-.4-.2-.2-.2-.1-.1-.2-.2-.2h-.5zm1.28 1.36.8.2.2.2-.1.4-.1.1-.4-.5-.5-.1-.2-.4zm-.3 1.6.4.2h.3l.1.2v.4l.2.3-.1.2-.6-.4-.2-.4-.2-.2-.2-.3zM688.3 828.3l-.5-.1.1-.2zm6.8 1.1h.7l.2.2.2-.2.2.1.2.3-.2.1-.4-.1-.4-.2-.8-.1.1-.2zm5 .4h.6l.1-.1.5-.1.4.2.4.3.1.3v.1l-.5.1-.2-.3-.2-.1-.1.3.2.1.1.3.3-.2.2.1.1.4.3.1.1-.1.5.3.1-.4-.8-.2.1-.5.3-.2 1.5-.1.7.6.2.1v.4l-.6-.1-.5-.2-.6.2.3.2.4.1.9.1.3.1.1.2-.2.5h-.5l-.1.1-.7.1-.5.2.3.2-.9.4-.4-.1-.5.1h-.7l-.6-.2-.6-.4v.3l.3.2.6.2.3.3.2-.1.4.1.4.3-.2.1.2.5h-.2l-.3-.3-.4-.1-.5.4-.2-.3-.3-.2h-.3l-.5-.2-.2.1.2.4h.3l.2.2-.2.1.7.6-.2.1-.4-.2h-.3l-.3-.3-.3-.1-.3-.1-.1.6.5.1v.3l-.1.2-.4-.1-.1-.2-.5-.2-.1-.2h-.2l-.4-.5.3-.4v-.2l-.4-.5v-.2l.5-.2-.1-.2.5-.1-.1-.3.6-.4.6-.2.4.4v.4l.3-.1-.5-.6.1-.3-.6-.2-.4-.3.1-.2.4.2.1-.5-.7-.2.1-.3.2.1.3-.2h.3l.2-.3-.3-.3h.4zm-7.2-.1.6-.1.2.3-.3.4-.2-.1-.3.1-.3-.2.3-.2.3.2.1-.2-.5-.1zm1.4.2h-.3l-.1-.3.4.1zm1 0h.3l.3.3-.3.1h-.3zm-1.6 1.9-.4-.2-.5-.3-.8-.3.1-.4-.7-.1-.3-.1-.3-.4.2-.1.8.3.8.4.5.1.4.1.3-.3.1-.3.2.1.4-.2.1.2h.5v.3h.3l.9-.2.1.2h.3l.4-.1-.3-.2-.1-.3h.4l.6.2.1.4-.4.5.1.3-.2.2h-.4l-.3.8-.3.3-.3.6-.1.3-.5.3-.1-.2h-.4v.3l-.8-.1-.1.1.3.4-.1.1-.2.4h-.4l-.3.4-.3.1h-.2l-.2-.3-.4-.3v-.2h-.5l.6.4h-.4l-.5-.3-.2-.1-.4-.2-.3-.2v-.2l.7.2.6-.2-.5-.2-.1-.1h.9l.4.1.3.2v-.2l.4-.1.1-.3-.4-.2-.2-.5.1-.2h.6l.2.1.4-.1-.1-.3h-.8v.1l-.4.2h-.6l-.5-.3v-.3l.7.2.6-.2h.3l.5-.1.4.2v-.1zm-2.9 1.3v.2l.1.3-.4.1-.3-.1-.2-.2-.3-.1-.1-.4h.2l.1-.2.3-.1.2.1-.3.3.3.1.3-.3zm12.1.9.2.1-.1.4-.3-.1-.2-.3.3-.2zm-6.2.8.2.2.4.1.1.4-.3.1-.1-.4-.2-.2zm.7 1.4.4-.1v.4l-.8-.3.3-.3.2-.1zM642 401.7l.5.1.2.5v.6l-.1.8-.1.2-.2.1-.4.2.1-.4-.1-.2-.1-.7-.3-.5v-.3l.1-.3v-.3h.2zm524.5-124.5v.1l-.2.2-.1.6-.1.2h-.3l-.2.2-.5.2-.2.1-.6.3-.4-.1-.5.1-.3.4-.2-.3-.3.1h-.2l-.3-.3-.4.3h-.5l-.5-.2-.5-.1-.4-.3-.3-.6-.3-.3-.2-.7-.2-.3.1-.3.5.3.4-.1.2-.3.1-.3.3-.1.2.1.2-.2h.2l.1.4.5.2.1.2h.6l.6-.5.4.1.3-.2.3.1.4.2.2-.3h.3l.3.4v.6l.3-.2.3.2.1-.1zm1.7-.5.1.2.3.4-.4-.1h-.3l-.4.2-.3-.3v-.3l.3-.1.2.1zm-626.8 98.7-.1-.1.8-.3-.2.3zm-.6-.1-.7.3.2-.3zm-8.1 2.5.3.1.2-.4.4.1h.5l.1.2-.2.2-.2-.1-.4.1-.2.1h-.7zm66.3 46.7h-.3l-.4-.3-.3-.1-.3-.3-.1-.2-.3-.1-.2-.4-.3-.3.1-.5.5.3.1.5.4.4.7.2.2.3.3.4zm247-33.1.3.1v.2l.3.3-.2.4-.6.3-.4.4-.7.1v-.6l-.2-.2v-.2l.2-.2h.2l.2-.2.7-.4zm.8 1.8.2.3.1.3-.7.3-.3-.2-.2-.2.4-.4zm11.3 1.3.1.1-.1.6-.2.1v-.5l-.2-.3v-.3l-.1-.3.4-.3.2.2-.1.6zm-7.8.5.4-.1.3.2h.4l.3.2.1.2h-.5l-.7-.3-.2.1-.3.6-.3-.6-.1-.1-.1-.4.3-.1zm8 2.8.3-.2.5.2.1.2v.7l-.4.3-.3.2h-.3l-.5-.2v-.5l.2-.2v-.6l.1-.1zm-2 5.7.3.1.1.6-.1.4-.4.2-.4-.4.2-.4-.1-.2zm-3.1 0 .2.1v.2l.2.2.4.5h.2l.2.3.2.5.2.2-.3.5-.3.1-.5-.1-.3-.1-.3-.3v-.2l-.2-.1-.1-.4.1-.2v-.3l.2-.4-.2-.5zm-3.5 3.1-.2.1-.4-.1-.3-.3-.1-.3.2-.4.5-.3h.4l.2.7-.1.4zm-1.9-.1-.2.3-.2-.2v-.3l.3-.1zm383.4 171.9-.5-.4-.3-.1-.3-.2-.2-.6.1-.3v-.2l.2-1.2-.1-.1.2-.4.5-.1.2.3-.2 1.2.1.3.2.4.1.5.2.6zm5.7 1 .2 1v.7l-.1.2-.2-.3-.4-.3-.1-.2-.3-.1-.6-.4.1-.1.5.2.3-.1.2-.4v-.2l.3-.1zm-3.7 1.9-.9-.1-.2-.4v-.3l.5.1.7.5zM651.5 418l-.6-.2-.1-.5v-.8l.2-.4.2.2.2.6.5.3.1.4zm-14.2-124h-.3l-.1.1.1.2-.4.2-.1-.1.2-.1h.1l.1-.3.3-.1zm-2.1 93-.1-.3.3.1zm-76-58.1.8.2.2-.1.4.3.9 1 .2.6.4.1.7.5v.2l-.2.5.2.7h-.4l-.5.4-.1.2-.3 1-.1.9-.2.2-.3-.2-.1-.4-.4-.1.3-.5h.2l.5-.4-.1-.4.2-.4v-.3l.2-.3v-.6l.2-.1.2-.3.1-.3-.3-.1-.5-.1-.1-.3v-.2l-.4-.2v-.3l-.3-.7-.2-.1-.3.1-.5-.1h-.3l-.6-.4zm-4.3 1.3.5.2h.1l.7.1.2-.2.2.1h.5l.4-.2h.4l.3-.2.1.5-.1.2h-.7l-1.1.2h-.3l-1.5.4-.7.4h-.4l-.2-.1-.3-.3-.5-.6.6.3.1.2h.5l.5-.2.4-.6-.3-.1.2-.3.1-.3zm8.8 7.5.1.2.3.4.8.7.5.1.1.1.2.4.3.4.5.4v.2l-.2.8-.1.2v.3l-.1.5-.2.3-.1.7-.1.1-.2-.6-.4-.3.1-.2.5.1.2-.2-.1-.2.1-.4.3-.4.1-.5v-.3l-.5-.4-.4-.7-.3-.2-.6-.3-.3-.3-.6-.2-.4.2.4-.9zm-8.1 2.6.4-.2.3.3-.1.2.1.2-.2.4.3.3.2.9.2.3.4.5-.2.7.1.6-.2.3-.3.1-.4.4-.3.2h-.3l-.3.2h-.3v-.4l-.3-.2.1-.6-.3.3-.2-.1-.6-.4-.3-.3-.2-.3.7-.3.5.7.1-.6-.3-.1-.1-.3.1-.3.6-.6.2-.4-.1-.1.3-.4v-.5l-.2-.7.1-.1h.3zm4.2.5.3.2-.6.3-.3-.1-.2.2-.5-.1.2-.3.4-.2zm10.3 5.5.1.5-.2-.1-.5.1-.4.1-.1-.2.3-.2.4-.3v-.2l-.4-.2-.2-.6-.1-.6-.4-.4v-.2l-.5-.5.3-.3.4.4v.5l.2.3.1.5.3.5.4.3.1.3zm-13.5.6.4.2.2-.2.1-.5.2-.1.2.6v.5l-.1.3.1.6v.3l-.4.8-.2.1-.4-.2.2-.3.4-.2-.1-.1-.6.4-.2-.2.4-.3h-.4l-.2.1-.2-.2v-.7l.1-.2-.4-.5v-.2l.4-.2.1-.3.3-.1.1-.2.6-.3.1.4-.5.4zm-.2-.7-.3.1-.2.3-.3-.1.6-.4zm18.5 1.2-.4.6h-.4l.2-.3.1-.6.4-.3.1.4zm-10.5.5-.1-.1-.3-.7h.2zm8.2 1.9-.3.2-.3-.1-.1-.2.6-.2zm-2.9 0 .3.6.2.5v.4l.2.2.2.7v.9l.2.3.5.2.4.6v.8l-.4-.7v-.2l-.3-.4-.6-.2.2-.2-.3-.3v-.3l.2-.3-.1-.5-.3-.4.1-.1-.3-.4-.1-.6-.2.1zm-3.7 0 .6.7.3.2.3.5-.3-.1-.1-.2-.3-.1-.4-.4-.2-.1-.2-.4zm9.2 5.9.1.1h.4l.4.2-.4.4-.1-.2h-.2l-.4-.1-.4-.2-.3-.6.3-.1.4.1zm1.9.3-.2.4v.7l-.1.4-.4.3-.2.4-.4.3-.7.3-.1.2-.2-.2.1-.2.4-.1.2-.2v-.2l.4-.1.2-.4.4-.1.3-.4-.2-.3h-.4l-.2-.2.4-.5.1-.1zm3.9 1.8.2-.1.5.3h.4l.4.1.3.2v.3l-.2.1-.5-.4h-.4l-.1-.1-.5.2-.5-.2v-.1l.2-.5zm-.4 6.5-.2-.6.6-.3.3.3v.2l-.3.1Zm-.2 1.7-.4.5-.2.5-.6.3h-.5l-.1-.1-.4.2-.5.1-.6-.2-.4.1-.1-.5.3-.2.2-.3.4-.2.3-.4h.4l.3-.2.2.3.5.2.5-.2.7-1h.3v.2zm683.7-32.7.3.1.2-.1.4.7-.1.2.1.9v.7l-.2.4-.1-.4-.6-.8.1-.4-.2-.7v-.4zm-623.4 54.9h.2l.2.2.1.4-.1.3-.2.1-.1-.2-.3-.2v-.5zm0 3.7.6.3-.2.3h-.2l-.7.1-.2-.1v-.5l.3-.1.1-.3h.2zM34.3 593.3l-.5.1-.1-.2.4-.1zm-6.6 0-.3.4-.2.3-.2.1-.4-.3.2-.2h.3l.1-.2zm606.5-208.4h-.2l.3-.4h.3l-.2.3zM592.9 422l-.5-.2-.5-.5.1-.6.2.3.4.4.3.5zm84.4 65 1.5-2.8.5-2.9 1-2.7-2.1-3.8-.3-4.4 3.1-5.5 1.9.7 4.1 1.5 5.9 5.4.8 2.6-3.4 5.9-1.8 4.7-2.2 2.5-2.7.4-.8-1.8-1.3-.2-1.7 1.7zM410 66.6 385.4 87l-35.6 32.7 4.2.2 2.8 1.6.5 2.6.3 3.8 7.6-3.3 6.5-1.9-.6 3.1.8 2.4 1.6 2.7-1.1 4.2-1.4 6.9 4.6 3.8-3.2 3.8-5.1 2.9-.6-2.2-2.5-2 3.3-5.2-1.6-4.9 2.7-5.6-4.1-.4-7.1-.1-3.8-1.8-3.3-6.1-3.3-1.1-5.7-2.1-6.8.5-6-2.7-2.7-2.5-6.3 1.2-3.5 4.1-2.9.4-6.6 1.2-6.2 2-6.4 1.3 3.2-3.5 8.4-5.8 6.8-1.8.4-1.4-9.4 3.2-7.4 3.9-11.2 4.2.2 2.9-9 4.2-7.7 2.5-6.6 1.9-4 2.6-10.6 3.1-4.5 2.8-8.2 2.6-2.7-.4-6.2 1.6-7 2.1-6.1 2-10 1.8.4-1.1 8.2-2.8 6.6-1.9 8.6-3.3 6.5-.6 5-2.5 10.4-3.6 2.3-1.2 5.7-2.1 5.8-4.5 6.2-3.5-7.3 1.8-.3-1.1-4.9 2.2.4-3-3.6 2.1 1.6-2.9-7.3 2.3h-2.8l3.7-3.5 3.3-2.2-.4-2.1-7.2 1.2-.6-2.8-1.3-1.4 4-3.3-.4-2.5 5.9-3.3 7.7-3.3 5.3-2.9 4.1-.4 1.8.9 7.1-2.8 2.5.5 5.6-1.8 2.5-2.6-1.1-1 6-2.2-2.8.1-6.2 1.2-2.9 1.3-1.8-1.3-6.9.7-4.6-1.4 1.2-2.3-1-3.2 9.2-2.4 13.2-2.7h3.5l-4.3 2.8 9.2-.2 1.2-3.5-2.3-2.1.8-2.8-.7-2.3-3.3-1.7 6.5-2.9 7.5-.2 8.8-2.4 4.8-2.6 7.9-2.6 4.8-.6 11.2-2.4 3.1.4 10.4-2.8 4.4 1.1-.5 2.4 3.3-1 6.3.3-1.9 1.2 4.9.9 4.9-.5 6.2 1.6 7.2.6 2.2.6 6.6-.8 4.1 1.6zm-172.8 33 1.2 1 3.5-.5 1.6 1.5 3.3.7-1.2.7-4.9 1.2-1.7-1.3-.3-1-4.3.3-.3-.5zM236 122l-3.9.9-1.7-1.1-.8-1.6 5.7-1 3 .6zm39 16.6-7 2.3-.8-1.6 2.3-2.8 6.4-2.1 3.5-.9 2.6.4v1.9zm264.5 55.9-6.1 2-4.7 2.5-4.6 2.7-.5.9 5.7-1.3 2.1 2.1 4.6-1.5 4.9-2.1 5.4-2.1-3.1 3.3 2.5.8 2.5 2.4 5.1-1.4 5.1-.5.3 1.8 1.5.2 1.2.2 1.5 2.5-4.7.6h-.1l-3.7-.7-4.5 1.2-3.7.6-4.7 4.1-3 2.3.4.7 5.5-4.1h.7l-4.7 4.9-2.9 4.4-2.5 3.6-.6 3.1-.8 1.5-.6 1.7.1 3.3.3.5 1.8-.1 1.6-.7 1.4-.8 3.3-3.1 1.8-4.2-.1-3.9 1.4-2.7 2.6-3.1 2.1-2.2 2.7-1.5-.4 2.1 2.2-3.1 1.3-.6 1.7-2.4 3.8 1.3 2.8 2.4-.8 2.9-1.6 2.9-3.8 2.5-.4 1.6h1l4.3-2.7 1.6.6-.5 3.7-.7 2.6-3.7 3.5-2 2.2-2.7 2.4 2.7 1.3 2.5.4 4-.9 3.7-1.7 3-.9 4.6-1.8 5.8-3.8.1-.6.3-1.9 2.7-.8 3.9.3 4 .5 4.6-2.1.6-2.5-.2-.9 6.8-4.4 2.7-1.1 7.8-.1h9.3l1.1-1.5 1.7-.3 2.5-1 2.8-2.9 3.2-4.9 5.5-4.7 1.1 1.6 3.7-1 1.6 1.8-2.9 8.5 2.2 3.6.2 2.1-6.4 3-6 2.2-6 1.9-4 3.8-1.3 1.4-1.2 3.4.7 3.3 2.1.2.2-2.3 1.1 1.4-1 1.8-3.8 1-2.5-.1-4.2 1.1-2.3.3-3.1.3-5 1.9 8.1-1.2 1.1 1.2-7.9 1.9H601l.4-.8-2.1 1.8 1.4.3-2.5 4.6-5.3 4.9.1-1.7-1.1-.3-1.2-1.6v3.5l1 1.1-.6 2.4-2.4 2.5-4.5 5.1-.4-.2 2.9-4.4-2-2.4 1-5.4-1.9 2.8v4.1l-3.2-1 3 2-1.5 6.1 1.4.5v2.2l-1 6.4-4.6 4.7-6.1 1.9-4.4 3.8-2.8.4-3.4 2.4-1.3 2.1-6.9 4.2-3.8 3.1-3.5 3.8-1.9 4.5v4.5l.6 5.5 1.5 4.5-.5 2.8 1.3 7.4-1 4.4-.6 2.5-2 3.9-1.8.8-2.6-.8-.4-2.8-1.8-1.5-2-5.5-1.6-4.9-.4-2.5 2-4.3-.8-3.5-3.1-5.4-1.9-1-6.1 3-.9-.4-2-3-3-1.6-6.4.9-4.6-.8-4.3.5-2.5 1 .6 1.7-.7 2.6.8 1.3-1.2.8-1.8-.9-2.3 1.2-3.9-.2-3.3-3.4-4.9.8-3.6-1.5-3.5.5-5 1.5-6.1 4.7-6.1 2.8-3.7 3-1.9 2.9-1 4.5-.4 3 .6 2.2-2.2.2-3.6-1.4-3.9-2-.9-3-.2-4.5-2.4-3.6-.9-3.8-1.6-4.4-3.2-2.6-4.5.2-4.8 5-4-1.9-2.3-1.9-.4-3.6-.8-3.3-2.4-2.8-2.1-2.1-1.3-2.3h-9.4l-.8 2.7H384.7l-10.9-4.5-7-3.1.9-1.3-7.1.7-6.3.5.3-3.2-2.1-3.7-2.2-.8.1-1.8-2.9-.4-1.2-1.7-4.8-.6-.9-1.1.8-3.5-2.5-6.4-.5-8.9.9-1.5-1.3-2.1-1.5-5.4 1.8-5.2-.9-3.5 3.9-5.3 2.8-5.4 1.1-4.9 5.5-6 4-5.7 4-5.7 4.3-8.5 1.8-5.3.4-2.9 1.4-1.3 5.8 2.2-1 5.9 2.2-1.7 2.5-5.1 1.6-5.1h137.1l1.3-2.4h1.7l-.9 3.4 1 1 3.3.4 4.6 1 3.9 1.9 4.4-.8zM102 360.7l-.8.6-1.6-1.1.4-.5 1-.6 1.3.1zm8.4 4.2-.4.4-.4-.1-1.9-.2-.3-1.5-.2-.2 1.7-.9.4.4zm4.7 1-.3.7-3-.2.6-.8zm3 3.4-2 .4-.6-1.3-.5-.5v-.4l.7-.6 1.8.6 1.2 1zm.7 10-1.1 1.1-1.2-.9.6-1.8-.4-2.4.5-.7 1.2-1-.1-1.3.4-.6.4.1 1.9 1.1.9.6.7.8.9 2.3-.2.3-2.5 1.4zM1014.4 185l1.1.5 1.4-.1 2.4 1.6 7.2 1.2-2.4 4.2-.4 4.5-1.3 1.1-2.3-.6.2 1.6-3.6 3.5v2.9l2.4-1 1.8 2.7-.1 1.8 1.5 2.4-1.7 1.9 1.5 4.9 2.8.8-.5 2.7-4.5 3.6-10.2-1.7-7.4 2.1-.6 3.8-5.9.8-5.8-2.9-1.9 1.4-9.5-2.9-2-2.4 2.7-3.8 1-12.6-5.1-6.6-3.7-3.2-7.6-2.4-.4-4.6 6.5-1.3 8.3 1.6-1.5-7.1 4.7 2.7 11.4-4.8 1.5-5.1 4.2-1.3.8 2.2 2.2.1 2.4 2.5 3.5 2.9 2.5-.5zm21.3 46.4-1.5 4.9-2.4-1.3-1.3-4.2.9-2.4 3.2-2.4zm-59.1-8 2 2.4 9.5 2.9 1.9-1.4 5.8 2.9 5.9-.8.4 3.7-4.9 4.2-6.6 1.4-.5 2.1-3.2 3.5-2 5.2 2 3.7-3 2.8-1.2 4.2-4 1.3-3.7 4.9-6.8.1-5-.1-3.4 2.2-2.1 2.4-2.6-.5-1.9-2.2-1.4-3.6-4.9-1-.4-2.2 2-2.4.8-1.7-1.8-1.9 1.6-4.2-2-3.8 2.3-.5.3-3.1.8-.9.3-5 2.4-1.7-1.3-3.2-3.1-.2-.9.8h-3l-1.2-3.1-2.2.9-1.9 1.6.5-4.5-2-2.7 7.4-4.6 6.2 1.1h6.9l5.4 1.1 4.3-.4zm368.5-203-7.1.6-11.7-1.3-8.1-1.7-6.6-3.2-5.9-.8 5.4-2.9 6.2-.9 9.6 2 13.7 4.2zm-180.3-7.3-4.3.5-2.9.4v.7l-3.6.7-4.5-1 1.1-1.4-7.8-.1 6.3-.8h5.2l1.5 1.1 1.3-1 2.8-.7 5.8.9zm202.3 10-18.1 1.8-1.3-6.1 2.2-.5 3.1.3 12.6 2.6zM1661.7 231l-1.4-1.1-1.9-3.3 2.5-.1-3.9-7.5-4.7-5.4 2.9-2.2 6.9 1.1-.6-6.2-2.8-6.8.3-2.3-1.3-5.7-6.9 1.9-2.6 2.4h-7.6l-6-5.8-9-4.5-10-2-6.2-6-4.5-3.8-3.8-2.7-7.7-6.2-6-2.2-8.6-1.9-6.2.2-5.1 1.1-1.7 3.1 3.7 1.4 2.5 3.4-1.3 2 .2 6.5 1.9 2.8-4.4 3.9-7.4-2.4-5.6.6-3.9-2.1-3.4-.7-4.4 4.4-5.9 1-3.6 1.6-6.8-1h-4.6l-4.9-3.2-6.6-2.9-5.4-.9-5.7.8-4 1.2-8.5-2.6-3.6-4.6-6.7-1.6-4.8-.8-7-2.5-1.3 6.4 4 3.6-2.4 4.4-8-1.6-5-.2-4.8-2.9-5.2-.1-5.3-1.9-5.9 2.9-6.7 5.3-4.7 1.1-1.7.5-4.4-3.8-6 .9-3.3-2.7-4-1.2-4.1-3.6-3.3-1.1-6.2 1.6-8.4-3.5-1.1 3.2-18.3-15.6-8.4-4.7.8-2-9.2 5.8-4.4.3-1.1-3.3-7.1-2.1-4.3 1.5-4.4-6.3-9.1-1.3-3.1 2.5-10.9 2.3-1.7 1.5-17 2.1-1.4 2.1 5.1 4.2-4 1.6 1.5 1.6-3.5 3 9.4 4.3-.2 2.9-7-.3-.8 1.9-7.3-3.2-7.7.1-4.4 2.6-6.6-2.5-12-4.3-7.6.2-8.1 6.7.6 4.5-6-3.6-2.2 6.9 1.8 1.2-1.7 4.8 5.3 4.2 3.6-.2 4.3 4.2.2 3.2 2.8 1.1-1.4 3.7-4.6 1-3.6 6.5 6 6.1.4 4.2 7.3 7.5-2.5 2.6-.6 1.6-2.4-.5-4.3-3.8-1.5-.2-3.6-1.5-2.1-2.6-5.1-1.3-2.9 1-1.2-1.2-7.6-3.1-7.7-1-4.6-1.1-.4.8-7.6-5.4-6.2-2.4-5.1-3.7 3.6-1 3.2-5.2-3.3-2.5 6.9-2.6-.4-1.4-4.3 1-.4-2.7 2.2-1.8 4.8-.4.3-2.1-1.8-3.5 1.3-3.2-.4-1.9-7.7-2-2.9.1-3.6-2.9-3.6 1-6.7-2.2-.1-1.2-2.3-2.7-3.9-.3-.8-1.9.9-1.3-3.8-3.5-4.9.6-1.5-.3-1 1.4-1.8-.2-2-4-1.5-2 .8-.6 3.9.2 1.6-1.3-1.7-1.6-3.4-1.1v-1.1l-2.1-1.1-3.8-4 .7-1.6-1.1-2.9-4.8-1.4-2.4.7-.9-1.5-5.3-1.5-2.1-3.6-1-2.9-2.5-1.3 1.6-1.9-2.4-5.6 2.6-3.4-.9-1 4.5-3.3-5.4-2.8 8-7.4 3.4-3.4.9-2.9-7.4-3.9.9-3.8-4.9-4.2 1.7-4.8-6.5-6.3 2.9-4.2-7.3-3.7-.4-3.8 3.2-.5 6.4-2.1 3.7-1.9 7.7 3.2 11.7 1.3 17.7 6.2 4.1 2.6 1.5 3.7-3.7 2.9-6.5 1.5-20.2-4.2-2.9.7 8.1 4.1 1 2.6 1.9 5.8 6.1 1.7 3.8 1.5-.2-2.8-3.4-2.4 2.1-2.2 11.6 3.6 3.2-1.4-4.3-4.2 8.1-5.4 4.1.3 4.6 1.9 1.1-3.8-4.7-3.3.8-3.3-4.3-3.4 12.3 1.8 3.6 3-5.1.7 1.2 3.1 4.1 1.9 6-1.2-.4-3.5 7.7-2.7 12.4-4.6 3.2.2-2.5 3.3 5.4.6 2.1-1.9 7.7-.1 5-2.3 6.4 3.3 2.8-3.6-6-3.1 1.2-1.8 13 1.6 6.6 1.7 18.6 6.2 1.1-2.8-5.9-2.9-.8-1.1-5.3-.6-.2-2.5-4.7-4.2-1.1-1.7 4.3-4.7-.6-4.8 2.2-1 11.4 1.4 2.9 2.9-.9 4.2 3.7 1.7 3.8 3.7 3.8 7.4 6.7 3.3.5 3.7-3.5 7.8 5.3.8.5-2 3.8-1.4-.5-2.7 1.9-2.7-4.4-3.1-.4-3.6-4.8-.4-2.9-3-.4-5.4-8.2-4.3 4.7-3.5-3.7-3.7 1.9-.1 4.2 2.8 2.1 5.1 5 1-4.6-3.8 5.1-2.1 8.1-.3 9.6 3-6.9-4.3-4.9-5.5 5.9-1 9.5.2 7.8-.7-5.6-2.6 1.3-3.3 4.2-.2 4.9-2.4 9.3-.7-.2-1.4 9.3-.4 4.3 1.1 5.4-2.6 7 .1-1.5-2.2.9-2 6.2-2 8.3 1.6-3.5 1.2 9.4.7 4.1 2.4 1.9-1.2 10.9.1 11.6 2.4 5.5 1.8 2.5 2.6-2.4 1.5-6.6 2.8-1.1 1.5 5.6.7 7.2 1.3 2.4-1 5.8 3.3.2-1.3 5.2-.8 13.6.8 3.8 2.4 17.4.8-4.8-3.9 9.5.9 6.1-.1 9.9 2.7 6 3.3.4 2.2 10.1 4.2 9 2.1-3-5.5 9.4 2.3 5-1.4 9.8 1.6 1-1.4 7.6.7-9.4-4.9 2.1-2.2 40.4 3.4 7.9 3.1 16.3 4 14.8-1 9.3.9 6.6 2.2 5.1 3.9 7.3 1.5 3.9-1.1 7-.1 9.3 1 6.9-.6 14.3 4.8 2.5-1.7-8.5-3.4-1.8-2.4 15.3 1.5 8-.3 15.8 2.5 9.5 2.4 33.2 22.1-2 2.5-6.2-.4 8.2 3 9.1 4.7 4.2 1.5 3.8 2.4 1 1.5-10-1.2-6.6 4.3-3 .7-1.6 4.1-2 3.6 1.7 2.7-11.5-4.1-6.1 4.6-4.7-2.2-1.4 2.6-7-.9 3.1 3.9 1.1 5.8 2.9 2.4 6.8 1.3 9.1 8.7-4.1.3 3.4 5 4.7 2.6-5 3.1 5.4 7-5.7 1.5 4.5 6.2-1.7 5.8-5.7-4.3-10.5-8.9-16.2-13.6-6.5-8.3.1-3.6-2.8-2.8 5.7-1.3-.2-7.5.7-6 2.5-4.7-6.6-8.2-4.7.5 3.2 4.8-3.6 6.4-12.3-7.2-9.1 2v9.8l7.7 3.6-8.5 1.6-6.4.6-4.3-4.3-8-.9-2.5 2.9-15.1-1-13.2 1.7-3.5 11.7-5 14.2 8.2.8 5.7 3.8 5.8 1.3.4-3 5.6.4 12.8 6.7 4.7 5.2 1.4 6.2 5.5 7.4 5.3 9.9-1 9.1 1.3 4.3-2 7.4-2.1 7.3-.9 3.7-4.6 3.7-3.1.1-5.2-3.1-4.1 4.7zM1218.8 61.3l-2.2.4-13.5-.7-2.3-2.3-7.9-1.4-2-2.9 3.5-1.1-1.6-2.8 5.4-4.4-4-.6 6.7-4.5-2.5-2.3 6.8-2.6 10.3-3.2 11.7-.9 5-1.8 6.7-.6 4.2 1.9-1.3 1.5-11.4 2.5-9.9 2.3-8.7 4.8-2.8 5-3.3 5 3.1 4.3zm316.7-25 3.1 3.8-14.3-.2-4.6 1.2-12.5-3.3-3.4-3.4 3.5-.9 10.2.2zm25.5 2.4-1.1 2-6.9-.4-10.3-2-1.8-1.6 8.3.7zm-12.6 9.5-5.9.1-8.9-.6-1-.3.7-2 4.2-.5 8.4 2zm-453.8 107.2-8.8.1-5.9-.7.7-2.6 6.3-2 5.1 1.1 2.2.9-.2 1.7zm594.9 22 13.7 11-8.9-2 3.7 9 9.6 6.4 3 4.4-6.5-3.8.1 4.9-4.7-5.3-3.8-6.1-5.6-6.7-2.4-4.8-6.4-8.2-8-6.1-6.8-8.4 1.9-2.8-4.4-2.8 1.3-.9 4.9 4 6.9 5.9 5.2 6.1zm-742.6 86.3-2.2 1.6-2.8-.9-2.7.7.9-5-.3-3.9-2.4-.6-1.1-2.4.5-4.2 2.2-2.3.5-2.6 1.2-3.8v-2.7l-.9-2.3-.2-2.2 1.9-1.6 2.2-.9 1.2 3.1h3l.9-.8 3.1.2 1.3 3.2-2.4 1.7-.3 5-.8.9-.3 3.1-2.3.5 2 3.8-1.6 4.2 1.8 1.9-.8 1.7-2 2.4zm69.6-86.6-2.8-1.5-3.1-2.7-4.5 1.3-3.6-.5 2.5-1.7 4-9 6.5-2.6 4 .2.9 2.1-.9 5.6-1.2 2.3h-2.9zM614.4 647.8l.9 1.6-1.2 6.7-5.6 3.1 1.6 10.7-.8 2.1 2 2.5-3.3 4-2.6 6-.9 5.9 1.7 6.2-2.1 6.6 4.9 11.1 1.6 1.2 1.4 5.9-1.6 6.2 1.4 5.4-3 4.2 1.6 5.8 3.3 6.3-2.5 2.3.2 5.7.8 6.5 3.3 7.8-1.7 1.3 3.7 7.3 3.1 2.4-.8 2.7 2.8 1.2 1.4 2.4-1.8 1.2 1.8 3.7 1.1 8.3-.7 5.4 1.8 3.2-.1 3.9-2.7 2.8 3.1 6.5 2.6 2.3 3.1-.4 1.9 4.6 3.5 3.6 12.1.8 4.9 1h-4.3l-1.7 1.5-3.4 2.2 1.7 5.7-1.9.1-6.3-1.9-7.5-4.3-7.6-3.5-3.2-3.9-.3-3.6-4.2-4.2-5-10.6-.2-6 3.4-4.8-8.3-1.9 2.7-5.5-2-10.5 6.5 2.2-1.8-13.1-4-1.7 1 7.9-3.5-.9-1.5-9-2-11.8 1.1-4.4-3.3-6.2-2.4-7.2 2.2-.3.6-10.3 1.2-10.3.1-9.5-3.3-9.7.6-5.3-2.1-7.9 1.8-7.8-.9-12.4v-13.4l.1-14.3-1.5-10.5-2.1-9.1 2.8-1.6 1.1-3.3 3.2 4.4 1.2 4.6 3.2 2.7-1.1 6.2 3.7 7.2 3.1 8.9zm40.7 190.1 6 13.6h5l3 .2-.5 2.4-3.2 1.9-2.4-.2-3.1-.5-4.2-1.8-5.4-.9-7.5-3.4-6.4-3.2-9.8-6.9 4.6 1.3 8.6 4.1 7.3 2.2 1.2-2.8-.3-4.2 3.4-2.6zm1260.1-104-.4 6.8 2.9-4.4 1.3 1.8-2.4 4.8 2.9 2.1 3.2.5 4.7-2.4 2.2.7-5.2 5.7-4.2 3.7-3.9-.1-2.8 1.9-1.5 2.8-1.6 1.1-4.6 3.5-5.9 4.3-6 2.6.5-1.7-1.5-.9 6.9-5.2.9-3.6-3.8-2.5 1.8-2.3 5.3-2.2 4.2-5 2.5-4.1.6-4.3.8-1.1-.9-2.7-.7-5.6.4-4.6 2.2-.5.9 3.6 3.2 1.6zm-29 30.5-.8 2.6 5.6-2.6-.5 2.7-2.1 2.7-4.2 2.9-7.1 4.7-4.7 2.6-.6 3-4 .1-6.3 2.4-4.7 4.1-8.2 6.4-6.3 2.8-4 1.8-4.6-.1-1.5-2.1-5.1-.4 1-2.4 6.5-4.6 11.4-6.3 4.3-1.2 5.6-2.4 7-3.3 5.7-3.3 6-4.7 3.1-1.6 3.5-3.6 5.8-2.9zm-726.8-119.7 2.2 9 1.1 4.6-1.4 7.1.4 2.3-2.7-1.1-1.7.4-.6 1.9-1.7 2.4-.1 2.2 3.1 3.5 3.2-.7 1.4-2.8h4.1l-1.7 4.7-1 5.3-1.7 2.9-4 3.3-1.1.9-2.6 3.3-1.8 3.3-3.5 4.6-6.7 6.6-4.1 3.8-4.3 3-5.9 2.4-2.7.4-.9 1.8-3.2-1-2.7 1.2-5.7-1.2-3.3.8-2.2-.4-5.8 2.6-4.6 1-3.5 2.4-2.4.2-2.1-2.3-1.8-.1-2.2-2.9-.3.9-.6-1.7.3-3.8-1.5-4.3 1.8-1.2.1-4.9-3.3-6-2.4-5.4v-.1l-3.6-8.3 2.8-3.2 2 1.8.8 2.7 2.5.5 3.4 1.2 2.9-.5 5-3.3 1.1-23.7 1.4 1 3 6.1-.6 3.9 1.1 2.3 4-.7 2.8-2.9 2.7-1.9 1.5-3.1 2.8-1.4 2.3.7 2.5 1.8 4.5.3 3.6-1.4.6-2 1.2-3.1 3-.5 1.8-2.4 2-4.3 5.2-4.8 8.1-4.7h2.2l2.7 1.1 1.9-.8zm-20.3 53.2 1.1-2 3.1-1 1.1-2.1 1.9-3.1-1.7-2-2.2-2-2.7 1.4-3.1 2.5-3.2 4 3.7 5zm-41.3-467.1-1.2.3-2.9 1-.1 1.3-.7-.1-.6-2.3-1.3-.7-1.2-1.7.8-1.4 1.2-.4.5-2.1.9-.4.8.9 1 .4.8 1 .9.3 1.1 1.2.7-.1-.4 1.6-.6.7zm124.3 281.8-3.3-5.3-.2-23.4 4.9-7.2 1.5-2.1 3.6-.1 5-4.5 7.3-.3 15.6-19.3-4.8.1-18.7-7.6-2.2-2.3-2.2-3.1-2.2-3.6 1.2-2.2 1.9-3.5 1.9 1.2 1.2 2.7 2.7 2.7h2.8l5.2-1.7 6.1-.7 4.9-2 2.8-.4 2-1.2 3.2-.2 1.8-.2 2.5-.9 3-.7 2.5-2.2h2.2l.2 1.8-.4 3.7.2 3.4-1.1 2.3-1.4 7-2.4 7.1-3.3 8.2-4.6 9.4-4.7 7.2-6.6 8.8-5.6 5.2-8.4 6.4-5.3 4.8-6.2 7.8-1.3 3.4zm-62.7 132.1-2.9-.7-1.9.8-2.7-1.1h-2.2l-3.4-2.9-4.3-1-1.5-4.1.1-2.3-2.3-.7-6.1-7-1.6-3.7-1.1-1.2-1.9-5.1 6.2.7 1.8.7 1.9-.1 3.2-4.2 5.1-5.2 2-.6.8-2.2 3.3-2.5 4.3-.9.2 2.4 4.7-.1 2.6 1.3 1.1 1.6 2.7.5 2.8 2-.4 8.2-1.3 4.4-.4 4.8.8 1.9-.9 3.8-.8.6-1.7 4.6zm2.7-87.9.3.2 2.2 1.1 3.6 1.1 3.2 1.9 2.6 2.9 1.3 5.4-1 1.7-1.3 5.2.9 5.4-1.8 2.2-2 6 2.9 1.6-17.2 5.3.4 4.6-4.3.9-3.3 2.5-.8 2.2-2 .6-5.1 5.2-3.2 4.2-1.9.1-1.8-.7-6.2-.7-1-.5v-.5l-2.2-1.5-3.6-.3-4.6 1.4-3.6-4-3.6-5.2.8-20.5 11.7.1-.4-2.2.9-2.4-.9-3 .7-3.1-.6-2 1.9.1.3 2 2.7-.1 3.5.6 1.9 2.9 4.4.9 3.5-2 1.2 3.3 4.3.9 2 2.8 2.2 3.5h4.3l-.2-6.9-1.6 1.2-3.9-2.5-1.5-1.2.9-6.4 1.1-7.6-1.2-2.8 1.7-4.1 1.5-.8 7.7-1.1.9.3-.3 1.4 1.9.5 1.2 1.3 1-.3zm121.7-161.9-4 1.7-.9 2.9v2.2l-5.4 2.7-8.8 3-4.7 4.5-2.5.4-1.7-.4-3.2 2.7-3.5 1.2-4.7.3-1.4.4-1.1 1.7-1.5.5-.8 1.6-2.8-.2-1.7.9-4-.3-1.6-3.8v-3.5l-1-1.9-1.3-4.7-1.8-2.6 1.1-.4-.7-2.9.6-1.2-.4-2.8 2.4-2.1-.8-2.7 1.3-3.1 2.4 1.6 1.5-.6 6.4-.1 1.1.6 5.5.7 2.1-.3 1.5 2.1 2.6-1.1 3.5-6.7 5-2.9 15.9-2.5 5.2 10.6zm302.7-31.4-6.5 5.4-3.7 6.1-.6 4.5 5.3 6.7 6.5 8.4 5.7 4 4.1 5.1 4 11.9.4 11.3-4.3 4.2-6.1 4.2-4.2 5.3-6.6 6-2.3-4.1 1.2-4.4-4.4-3.6 4.6-2.6 5.9-.5-2.8-3.8 9-5-.1-7.7-1.8-4.3.2-6.4-2-4.5-4.9-4.5-4.4-5.6-5.7-7.6-7.3-3.9 1.2-2.3 3.3-1.7-3-5.6h-6.8l-3.5-5.8-4-5.1 2.7-1.6 4.4.1 5.3-.8 4.1-3.4 3.1 2.4 5.3 1.2-.3 3.7 3.1 2.6zm-937.8 84.6-4.7 3.8-.5 2.3 1.8 2.4-1.4 1.2-3.5 1v3l-1.6 1.8 3.7 4.8.7 1.8-2.1 2.5-6.4 2.4-4.1 1-1.7 1.5-4.5-1.6-4.1-.8-1.1.6 2.5 1.6-.3 4.3.7 4.1 4.8.5.3 1.4-4.1 1.8-.7 2.7-2.4 1.1-4.2 1.5-1.1 2-4.4.4-3.1-3.4-1.6-6.4-1.5-2.3-2-1.4 2.9-3.2-.2-1.4-1.5-1.9-1.1-4.3.6-4.6 1.3-2.2 1.2-3.4-2-1.1-3.2.7-4.1-.3-2.3.7-3.8-5.6-3.3-.8-7.3.6-1.2-2.2-1.4-.5-.1-1.4.7-2.4-.3-2.5-1.2-1.5-.6-2.9-2.9-.4 1.8-3.8.9-4.6 1.8-2.4 2.3-1.8 1.6-3.2 3.7-1.1-.2 1.5-3.4.8 1.7 2.9-.3 3.4-2.7 3.7 1.9 5.1 2.5-.4 1.5-4.7-1.7-2.2v-4.9l7.2-2.6-.6-3 2.1-2.1 1.7 4.6 4 .1 3.4 3.5.2 2.2h5l6.1-.6 3.1 2.8 4.2.8 3.3-2 .1-1.6 7.1-.4 6.7-.1-4.9 1.9 1.8 3.1 4.5.4 4.2 3.2.7 5.1 2.9-.1zm704-217.4 1.7.6-3 4.1 4.6 2.4 3.2-1.6 7.2 3.4-5.3 4.6-4.1-.6-2.1.1-1.3-1.7.2-3-6.5 1.5-.5 4.1-1.5 3.5-4.4-.3-.6 2.8 4.2 1.5 2.4 4.8-1.3 6.5-4.3-1.4h-3l-.8-3.9-7.7-2.8-6.3-3.1-4.2-3-7.1-4.4-4.3-6.6-2.1-1.2-5.5.3-2.3-1.3-1.9-5-7.9-3.4-3.4 3.7-3.8 2.2 1.7 3.2-5.9.1-6.2-23.4 12-3.7 1.1.5 9.2 4.5 4.8 2.4 6.6 5.7 5.7-.9 8.6-.5 7.6 4.6 1.5 6.4 2.6.1 2.5 5.2 6.7.2 2.3 3h2l.9-4.6 5.4-4.4zm-653 487.9-1.6 4.1-5.4 3.5-4.2-1.3-2.8.7-5.5-2.7-3.6.2-3.9-3.6-.4-4.1.9-1.4-1.2-6.4.4-6.6.5-5.2 3.4-.7 6.3 5 1.9-.2 6.3 4.1 4.8 3.6 3.8 4.3-1.8 3.1zm457.5-544 2.3 2.7.1 1.2 6.7 2.2 3.6-1 3.6 2.9 2.9-.1 7.7 2 .4 1.9-1.3 3.2 1.8 3.5-.3 2.1-4.8.4-2.2 1.8.4 2.7-3.9.5-3 2.1-4.6.3-4 2.4 1 3.9 2.8 1.5 5.1-.4-.6 2.3-5.4 1.1-6.3 3.6-3.1-1.3.7-2.9-5.9-1.9.7-1.2 4.6-2.1-1.7-1.4-8.1-1.6-.8-2.4-4.5.8-1.3 3.5-3.3 4.6-2.4-1.1-2.3 1.1-2.4-1.2 1.2-.7.6-2.1 1.1-2.1-.6-1.1 1-.5.6.9 3 .2 1.3-.5-1-.6.2-1-2-1.6-1.1-2.6-2-1 .1-2.1-2.6-1.7-2-.3-4-1.9-3.2.6-1.1.9h-2.1l-1 1.5-3.6.6-1.6 1-2.5-1.6h-3.2l-3.2-.7-2 1.4-.5-1.7-3-1.7.7-2.5 1.2-1.7 1.1.4-1.6-2.8 3.8-5.2 2.3-.7.3-1.7-3.2-5.4 2.3-.3 2.4-1.6 3.8-.2 4.9.5 5.7 1.5 3.9.1 1.9.9 1.7-1.1 1.5 1.5 4.3-.3 2.1.6-.3-3.1 1.3-1.4 4.1-.3 1.8.2 1-1.4 1.5.3 4.9-.6 3.8 3.5-.9 1.3.8 1.9zm21.8 299.9 2.7 4.5.7 3.2 2.6 7.4-2.1 4.7-2.8 4.2-1.6 2.6v.3l-.2-.4-3-1.3-2.4 1.6-3.6.9-2.6 3.7.3 2.5-6.2-.1-2 .8-3.4 2-1.4-.7.1-4.8 1.3-2.5.3-5.1 1.2-3 2.2-3.3 2.1-1.8 1.9-2.2-2.3-.9.3-7.5 2.3-1.8 3.6 1.5 4.5-1.5h4zm-12 33.9-.2 3.9-1.1 4.5 1.6 2.5 2.5-1.5 3.3-.4.7.8 3.3-1.6-2.3-2.2 1.9-2.9 2.8-2.9 20.5 13.1.3 3.7 8.1 6.4-2.8 8 .3 3.6 3.5 2.3.2 1.7-1.7 3.9.3 1.9-.4 3.1 1.8 4 2.2 6.4 2 1.4-4.6 3.7-6.2 2.5-3.4-.1-2.1 1.9-3.9.2-1.5.8-6.7-1.8-2.2.2.1-.1-1.8-2.4-.3-6.8-2.9-3.4-.4 1.2-1-1.7-5.5-1.2-3.2-1.9-3.6-1.1-2.2-1.1-.3-.2-2.7-6.6-.4-3.9-4.5-4.4 1.4-2.4-1.1-2.6.2-2.7-1-.9.3-2.8.6-.1 2-2.3 2.3-3.4 1.4-1.3v-2.1l-1.2-1.5-.3-2.5 1.6-.8.3-3.8-2.2-3.6 2-.8zm490.9-152.9-1.4 5.3-4-5.5-1.5-4.7 1.9-6.3 3.3-4.9 3 1.9-.1 3.9zm-536-115.6 1.2-.7 1.1-4-2.7-1.7 5-2 4.6.8.9 2.5 4.8 2-.7 1.6-6.2.3-2 2-3.9 3.4-2-2.9zm79.8-4.6 5.5-.3 5.6 3.2 1.3 2.2.1 3.1 4.2 1.6 2.4 1.8-3.3 1.9 2.9 7.3-.7 2 3.8 5.1-2.4 1.1-2.1-1.6-6.3-.9-2.1 1-5.9 1-2.9-.1-5.7 2.4h-4.4l-3-1.2-5.6 1.8-1.9-1.2.2 3.5-1.2 1.4-1.3 1.4-2.3-2.9 1.7-2.4-3.2.6-4.6-1.5-3.2 3.7-8 .7-4.7-3.4-5.7-.2-1 2.6-3.6.8-5.4-3.4-5.8.1-3.8-6.4-4.2-3.5 2-5-3.6-3.1 5.1-6.1 8-.2 1.6-4.9 10 .9 5.6-4.1 5.8-1.8 8.5-.2 9.8 4.5 7.9 2.5 5.8-1 4.6.6zm-153.5 53.8-.1 4.9-2.6 1.8-1.6 2.1-3.6 2.5.6 2.6-.4 2.8-2.6 1.4-2.6-11.5-3.4-2.6-.1-1.5-4.5-3.9-.6-4.8 3.2-3.6 1.1-5.3-1-6.1 1-3.3 5.7-2.5 3.7.7v3.3l4.4-2.4.4 1.2-2.5 3.2.1 2.9 1.9 1.6-.5 5.6-3.5 3.2 1.2 3.5 2.8.1 1.4 3.1zm644.5 273 .1-1.9-.5-1.3.8-1.5 4.9-1.4 4-.3 1.8-.8 2.1.8-2.2 1.8-6.1 2.8zM1338.3 262l-1.6-.2-2.9-1.7-.3 2.2-4.2 1.3.2 5.1-2.6 2-4 .9-.4 2.9-3.9.9-5.9-2.5-1.7-5.3-4-.3-7.3-5.6-4.3-.7-6.6-3.3-3.9-.6-2 1.2-3.6-.2-3 3.7-4.4 1.2-1.9-4.5-.6-6.7-4.6-2.2.4-4.3-3.5-.4-.1-5.4 5.3 1.6 4.1-2-4.7-3.9-2.4-3.6-3.8 1.6.6 4.7-2.6-4.1 1.8-2.2 5.6-1.3 3.9 1.8 4.8 5 2.6-.3 5.9-.1-1.7-3.2 3.8-2.2 3.4-3.7 7.9 3.4 1.9 5 2.3 1.3 5.5-.3 2.1 1.2 4.3 6.6 7.1 4.4 4.2 3 6.3 3.1 7.7 2.8zm18.7-18.4-1.4 1.9-6-1 .6 3.6 5.5-.5 7.1 2.1 9.6-1 3.1 6 1.5-.7 3.7 1.5.5 2.5 1.8 3.6h-5.4l-3.8-.5-2.5 2.9-2.2.6-1.5 1.4-2.7-2.1-.9-5.4-1.7-.3.1-2-3.3-1.4-1.7 2.2.2 2.6-.6.9-3.2-.1-.9 2.9-2.1-1.2-3.4 2-1.8-.7 1.3-6.5-2.4-4.8-4.2-1.5.6-2.8 4.4.3 1.5-3.5.5-4.1 6.5-1.5-.2 3 1.3 1.7zm220.5 166.6-5.3-.9-7.1 1.2-3.1 5.3 2.1 7.8-5.3-3-4.8.2.3-5.1h-4.9l.2 7.1-2.2 9.4-1.4 5.7.7 4.6 3.7.2 2.7 5.9 1.3 5.5 3.4 3.7 3.4.7 3.1 3.4-1.7 2.6-3.7.8-.6-3.3-4.8-2.8-.9 1.1-2.3-2.4-1.2-3.2-3.2-3.6-2.9-3.1-.7 3.8-1.3-3.6.4-4 1.2-6.1 2.2-6.6 2.6-6-2.7-5.9-.2-3-1-3.6-4.3-5.1-1.8-3.2 1.8-1.2 1.4-5.5-2.9-4.3-4.1-4.7-3.5-5.6 2.2-1.2 1.5-6.9 3.9-.3 2.8-2.8 3-1.5 2.7 2 .9 3.9 3.8.3-.4 6.7 1 5.8 5.3-3.8 1.9 1.1 3.2-.2.8-2.2 4.3.4 5 5.2 1.3 6.4 5.3 5.6.4 5.4zm-586.1 21-.7 3.4 1.7 1.9 2 2.2.2 3.2 1.2 1.3-.3 14.8 1.4 4.4-4.5 1.4-1.3-2.3-1.5-4.1-.5-3.2 1.3-5.7-1.4-2.4-.6-5v-4.7l-2.3-3.3.4-2zm127.8-55.1 1.1 25.5-4.8-.5-2.5 4.8-1.3 3.9 1.2 1.5-1.8 2 .7 2.7-1.4 2.6-.5 2.4 1.9-.4 1.3 2.5.1 3.7 2.1 1.9v1.6l-3.6 1.1-2.8 2.6-4 7-5.2 3-5.5-.4-1.6.6.6 2.2-2.9 2.3-2.4 2.5-7.1 2.4-1.4-1.4-1-.2-1 1.7-4.6.5.8-1.8-1.8-4.4-.8-2.6-2.5-1.1-3.4-3.8 1.2-3 2.6.6 1.6-.4h3.2l-3.2-5.8.2-4.3-.5-4.2-2.3-4.1.6-3.1-3.7-.1V412l-2.4-2.4 2.3-8.5 7-6 .2-8.4 1.8-13 1.2-2.8-2.4-2.2-.1-2-2.2-1.7-1.6-10 5.5-3.5 22.5 12.3zm75.8-88.6-9.7 6.9-6.3-2.6h-.1l.6-1-.4-2.6.9-3.5 2.7-2.5-1.2-2.5-2.5-.3-1.1-4.9 1-2.7 1.3-1.4 1.2-1.4-.2-3.5 1.9 1.2 5.6-1.8 3 1.2h4.4l5.7-2.4 2.9.1 5.9-1-2.1 4-2.7 1.6 1.2 4.7-1 7.7zm-33.3 380.2.6 2.9.3 2.9-1.4 2.8-3.2.7-3.1-3.5.1-2.2 1.7-2.4.6-1.9 1.7-.4zM1088.2 87l-7 1.6-3.5 3.9 1.3 3.5-6.2 4.5-7.8 5-2.1 8.1 3.7 4.1 4.8 3.3-3.3 6.6-4.6 1.4-.6 10-2.1 5.7-5.7-.6-2.2 4.8-5.5.3-1.9-5.7-4.5-6.9-4.2-8.4 1.8-3.4 3.4-4 .8-6.9-3.1-2.9-1-7.7 2.4-5.4 4.3.1 1.3-2.2-1.8-2 5.7-7.9 3.4-6.1 2.3-3.9h4l.6-3.1 8 .9-.1-3.6 2.6-.2 6 2.7 7.2 3.7 1.8 8.5zm-18.4 116.9-3.9 1.7-.3 2.5-1.7.7.1 1.7-2-.1-1.8-1-.8 1-3.6-.2 1.1-.5-1.4-2.7.4-3.1 4.2.5 2.4-1.5 4.4-.1.9-1.1.8.1zm28.3-16.2-1.2 1.7-.7 2.5-1 .6-5.5-1.9-1.6.4-1 1.5-2.3.8-.6-.4-2.3.9-1.9.2-.3 1.3-4.1.7-1.9-.6-2.7-1.7-.7-2.1.3-.8.6-1.4 2.2.1 1.6-.6.1-.6.9-.3.2-1.4 1.1-.3.7-1.1h1.5l.3.4 1.9-.9 2.7 2.2 2.8-1.3 2.4.6 3.5-.9zM681 464.9l-3.1 5.5.3 4.4 2.2 3.8-1.1 2.7-.5 3-1.5 2.7-3.2-1.4-2.7.7-2.3-.6-.6 1.9 1 1.2-.6 1.4-3.1-.6-3.3-5.6-.7-3.6H660l-2.4-4.6 1.1-3.4-.3-1.5 3.5-1.6 1-5.8 6.8 1.3.6-1.2 4.6-.5zm421-246.7-1.1 1.4.7 2.4 2.8 2.7-1.8 2-.6 2 .6.8-.7.8-2.4.2-1.7.3-.3-.5.6-.7.4-1.6-.7.1-1.1-1.2-.9-.3-.8-1-1-.4-.8-.9-.9.4-.5 2.1-1.2.4.4-.5-2.1-1.3-1.7-.7-.9-.9-1.4-1.1 1.1-.3.5-2.9-2.7-2.5 1.1-2.8-1.9.1 1.7-2.4-1.7-1.8-1.5-2.5 3.7-1.6 3.2.3 3 2.4.8 2.1 3.2 1.4.7 2.6 3.1 1.9 1.5-1.4 1.3.7-1 1.1zM492.5 415.9l-.7 1.5-3.3-.1-2-.6-2.2-1.3-3-.4-1.5-1.4.3-.9 2-1.6 1.2-.7-.3-.8 1.4-.4 1.6.6 1.1 1.2 1.6 1.1.1.8 2.5-.7 1.2.4.7.7zm436 32-2.6 3-2.6 3.4-.3 1.9-1.4 2.1-1.5-.5-4-2.6-3-3.4-.9-2.4-.7-4.7 3.1-2.9.6-1.7 1-1.4 1.6-.2 1.3-1.2h4.5l1.6 2.3 1.2 2.7-.2 1.9.9 1.7-.1 2.3zM918 408l.2 4 1.1 3.7 2 1.8.5 2.4-.3 2-.8.4-3.1-.5-.4.7-1.2.1-4.1-1.5-2.7-.1-10.4-.3-1.5.8-1.9-.2-3 1-.8-4.9 5.1.1 1.4-.9h1l2.1-1.5 2.4 1.3 2.4.2 2.5-1.5-1.1-1.8-1.9 1h-1.7l-2.2-1.6-1.8.1-1.3 1.6-6.1.1-2.3-5-2.7-2.2 2.5-1.3 2.8-4.5 1.4-3.3 2-2 2.7.5 2.8-1.4h3.1l2.7 1.8 3.6 1.7 3.4 4.8zm260.1 33.1.2 5-.8 1.9-3 .2-1.9 3.6 3.5.5 3 3.1 1 2.6 2.6 1.5 3.5 7-3.8 4.2-3.4 3.8-3.5 3h-4l-4.5 1.5-3.6-1.5-2.3 1.8-5.1-4.3-1.4-2.7-3.1 1.3-2.6-.4-1.5 1.1-2.6-.8-3.5-5.3-.9-2-4.3-2.6-1.4-3.8-2.4-2.8-3.9-3.3-.1-2.1-3.1-2.6-3.9-2.5 1.7-.7 2-1.2 1.3-5.8 1.5-2.9 4.1-.9 1 1.7 2.9 3.8 1.6.5 2-1.1 4.1.3.8 1.3h5.6l.2-1.3 2.9-1.3.5-1.8 2.1-1.3 4.8 3.7 2.9-.7 2.7-4.6 3-3.5-.5-3.9-1.5-1.8 3.4-.4.4-1.4 2.6.4-.6 4.8.9 4.6 2.9 2.5.8 2.2-.1 3.2zm12.9-31.9-.7 5.5-2 6.4-3.3 3.1-2.3 5-.5 2.6-2.6 1.8-1.5 6.7v.8l-.8-.2.1-3.2-.8-2.2-2.9-2.5-.9-4.6.6-4.8-2.6-.4-.4 1.4-3.4.4 1.5 1.8.5 3.9-3 3.5-2.7 4.6-2.9.7-4.8-3.7-2.1 1.3-.5 1.8-2.9 1.3-.2 1.3h-5.6l-.8-1.3-4.1-.3-2 1.1-1.6-.5-2.9-3.8-1-1.7-4.1.9-1.5 2.9-1.3 5.8-2 1.2-1.7.7-.5-.3-1.9-1.9-.4-2 .8-2.6V437l-3.3-4-.7-2.7v-1.6l-2.1-1.9-.1-3.7-1.3-2.5-1.9.4.5-2.4 1.4-2.6-.7-2.7 1.8-2-1.2-1.5 1.3-3.9 2.5-4.8 4.8.5-1.1-25.5v-2.7h6.4l-.5-12.8h65.9l2.1 6.3-1.2 1.1 1.2 6.7 2.5 7.6 2.2 1.6 3.2 2.4-2.7 3.6-4 1.1-1.7 2-.3 4.2-2 9.5zm49.5-94.2 5 .6 1.7 3.1 3.9-.2 2.7 5.6 2.9 1.4 1.2 2.3 4 2.7.7 2.6-.4 2.2.9 2.1 1.8 1.8.9 2.1 1 1.6 1.8 1.3 1.5-.5 1.3 2.5.3 1.4 2.7 6.6 16.9 3.2 1-1.4 3 4.6-2.6 12.8-16.3 6.4-15.9 2.5-5 2.9-3.5 6.7-2.6 1.1-1.5-2.1-2.1.3-5.5-.7-1.1-.6-6.4.1-1.5.6-2.4-1.6-1.3 3.1.8 2.7-2.4 2.1-.9-2.8-1.8-1.9-.5-2.6-3.1-2.3-3.3-5.4-1.9-5.2-4.1-4.4-2.5-1.1-4.1-6.1-.9-4.4v-3.8l-3.6-7.2-2.8-2.5-3-1.3-2.1-3.7.2-1.4-1.8-3.4-1.7-1.4-2.5-4.8-3.8-5.1-3.1-4.4h-2.7l.5-3.5.1-2.3.4-2.6 6.2 1.1 2.1-2 1.1-2.3 4.1-.9.7-2.2 1.6-1-6-6.5 10.4-3.2.9-1 6.8 1.8 8.6 4.5 16.8 12.9zm-301.6 9.3-.1.4-.1 1.2-.2 9.8-18-.4-.2 16.5-5.2.5-1.5 3.3.9 9.3h-21.7l-1.3 2.1.3-2.7h.1l12.5-.5.7-2.3 2.4-2.9 2-8.9 7.9-6.9 2.7-8.1 1.8-.5 1.9-5 4.6-.7 2 .9h2.5l1.8-1.5 3.4-.2-.1-3.4zm219.9 184.8 2.2 3.6-.3 3.8-1.6.8-3.1-.4-1.7 3.7-3.5-.5.6-3.6.8-.5.2-3.8 1.6-1.8 1.4.7zm-39.9-316 1.6.7 1.8 1.8 2 2.6 3.4 3.8.6 2.7-.2 2.7 1.3 2.9 2.4 1.2 2.3-1.1 2.4 1.1.4 1.7-2.3 1.3-1.6-.6-.4 7.7-3.1-.7-4-2.3-5.9 1.5-2.3 1.6-7.6-.4-4-.9-1.9.4-1.8-2.6-1-1.1 1-1.1-1.3-.7-1.5 1.4-3.1-1.9-.7-2.6-3.2-1.4-.8-2.1-3-2.4 3.9-1.2 2.6-4.3 1.9-4.2 2.9-1.3 2-1.4 3.2.7h3.2l2.5 1.6 1.6-1 3.6-.6 1-1.5zm151.2 150.6-1.5.5-1.8-1.3-.8-4.7 1.1-3.3 1.5-.7 1.8 2 .5 3.7zm-91.8-49.9.4 4-.6 1.9-2.5.8.1-1.7 1.3-.9-1.5-.7.7-4.2zM662.5 631.4l2 3.5.4 8.7 5.9 1.3 2.2-1.3 3.9 1.8 1.2 1.9 1.1 5.9.8 2.4 2.1.3 2-1 2.1 1.1.3 3.6-.3 3.8-.7 3.7-.3 5.6-4.3 5-4.2 1-6.3-1-5.8-1.7 4.2-9.8-1.1-2.8-5.9-2.5-7.3-4.8-4.6-1-11.3-10.4 1.5-7.7-.2-3.5 2.1-5.6 9.6-1.9 5.2.1 5.4 3.3zm997.8-401.5 1.4 1.1-2.2-.4-1 2.2-.3 2.1 2.8 4.6-1.9 1.4-.3 1.1-.9 1.9-2.9 1.1-1.4 1.7 1.3 2.7-.3.7 2.6 1.1 4.4 2.8v1.5l-2 .4-3.6.4-.6 2.8-2.5-.2v.6l-3.2-1.2-.1 1.2-1.3.5-.7-1.2-1.7-.6-1.9-1 .1-2.8.9-.8-1-1.1-.4-3.5-.9-1-3.4-.7-3.4-1.7 2.1-4.1 3.9-3.4 1.1-4.6 3.6 2 4.6.3-2.8-3.4 6.4-2.7v-3.6zm-580.4-75.1 5.9.7 8.8-.1 2.5.7 1.4 1.9.6 2.7 1.7 2.3.4 2.4-2.8 1.3 1.9 2.8.5 2.8 3.2 5.4-.3 1.7-2.3.7-3.8 5.2 1.6 2.8-1.1-.4-5-2.4-3.5.9-2.4-.6-2.8 1.3-2.7-2.2-1.9.9-.3-.4-2.6-3.1-3.7-.3-.7-2-3.4-.7-.6 1.6-2.8-1.3.2-1.7-3.7-.5-2.5-2-2.4-3.9.2-2.2-1.5-3.3-1.9-2.1 1.2-1.7-1.4-3.1 3.1-1.8 7.1-2.8 5.8-2 4.8 1 .6 1.5zm773.7 375.9-1.8 1.7-.9-3.8-1.1-2.4-2.5-2.1-3.1-2.8-4-1.9 1.6-1.5 3 1.8 1.9 1.4 2.3 1.5 2.1 2.7 2.1 2.1zm-70.7 29.7 1.6-21 1-20.9 9.6 4.4 10.3 3.7 3.7 3.3 3 3.2.6 3.8 9.2 4 1.1 3.4-5.2.7.9 4.3 4.7 4.2 3 6.8 3.3-.2-.6 2.8 4.3 1.1-1.8 1.2 5.7 2.7-.9 1.9-3.8.4-1.2-1.6-4.7-.8-5.6-.9-4-4.1-2.8-3.6-2.5-5.6-7.1-2.8-4.9 1.8-3.7 2.2.3 4.7-4.6 2.2-3.1-1.1zm63.8-23.4-3 .5-1 1.8-3.2 1.6-3 1.5h-3.1l-4.5-1.9-3.1-1.8.6-2 5 1 3.2-.5 1-3.1.9-.2.3 3.4 3.2-.4 1.8-2.2 3.3-2.3-.4-3.8 3.4-.1 1.1 1-.4 3.6zm21.4 8.6-1.6.7-2.3-2.5-2.2-4.1-.8-4.9.8-.6.5 1.9 1.6 1.5 2.4 4 2.5 2.2zM1663.7 383l3.8 1.9 1.4-1.7.8 1.6-.4 2.7 2.6 4.6-.6 5.3-2.9 2.1-.1 5.2 2 5.1 3 .7 2.4-.7 7.5 3.5-.1 3.5 2.1 1.6-.3 2.9-4.7-3.1-2.5-3.4-1.2 2.4-4-3.9-5 1-3-1.4-.1-2.7 1.6-1.6-1.9-1.5-.4 2.3-3.3-3.7-1.3-2.8-1.1-6.1 2.6 2.1-1.1-10.1.8-5.8zm6.5 34.9-.9 5.6-2.7-3.2-3.5-4.9 4.8.2zm23 5.8 2.4 7.2-4.5-1.7.3 2.2 1.8 3.9-2.6 1.5-.6-4.6-1.8-.3-1.2-3.9 3.3.5-.3-2.4-4-4.9 5.4.1zm-20.1 1.8 3.6 2h3.5l.2 2.6-2.3 2.8-3.4 1.9-.5-3 .1-3.3zm-17.5 16.5-7.1 6.1 2.4-4.5 3.8-4 3-4.4 2.3-6.4 1.6 5.3-3.5 3.5zm30.3-6.2-1.8 2.1-1.4 4.1-1.6 1.9-3.9-4.4 1-1.8 1.3-1.8.2-3.9 3.1-.4-.5 4.3 3.6-6.2zm14.6 12 .9 4.3.6 3.6-1.6 5.8-2.5-6.5-2.4 3.3 2.1 4.7-1.4 3-6.9-3.7-1.9-4.7 1.5-3-3.8-3.1-1.6 2.7-2.6-.3-4 3.6-1-1.9 1.8-5.4 3.4-1.8 2.9-2.4 2.2 2.9 4.2-1.7.7-2.9 4-.2-.8-4.9 4.9 3 .7 3.2zm-1110 81.6-5.1-.3-.8 1-4.6 1.2-6.3 4.4-.3 3-1.4 2.2.7 3.5-3.4 1.8.2 2.8-1.5 1.1 2.6 5.8 3.3 3.9-1 2.8 3.8.3 2.3 3.5 5 .1 4.4-3.7.1 9.7 2.6.7 3.2-1.1 5.5 10.4-1.1 2.1v4.6l.3 5.4-1.9 3.2 1.2 2.4-1.1 2.2 2.9 5.4-2.9 6.9-1.1 3.3-2.8 1.6-5.9-3.7-.8-2.6-11.7-6.4-10.7-7.1-4.7-3.9-2.8-5.3.8-1.9-5.4-8.4-6.4-11.8-6-12.8-2.4-3-2-4.7-4.6-4.2-4.1-2.6 1.7-2.8-3-6.2 1.7-4.5 4.4-4 .7 2.7-1.6 1.5.3 2.3 2.3-.5 2.3.7 2.5 3.3 3.1-2.7.9-4.3 3.4-5.6 6.7-2.5 6.1-6.8 1.7-4.1-.8-4.9 1.5-.6 3.8 3 1.8 3.1 2.6 1.6 3.5 6.7 4.2.9 3.1-1.7 2.1 1.1 3.4-.6 4.4 3-3.5 6.6 1.7.1zm-41.2-83.2-.7.9 1.1 3.8-1.1 1.9-1.8-.5-.9 3.1-1.8-1.8-1-3.5 1.4-1.7-1.4-.4-.9-2.1-2.8-1.8-2.4.4-1.3 2.2-2.4 1.6-1.2.2-.6 1.4 2.5 3.5-1.6.8-.8.9-2.7.4-.8-3.9-.8 1.1-1.8-.4-1-2.5-2.3-.5-1.5-.7h-2.4l-.2 1.4-.6-1 .3-1.3.6-1.3-.2-1.1.9-.8-1.1-.9.1-2.6 2.2-.6 1.9 2.3-.2 1.4 2.2.3.6-.6 1.5 1.6 2.8-.5 2.5-1.6 3.5-1.3 2-1.9 3.1.4-.2.6 3.1.2 2.4 1.2 1.8 1.9zm852.3-172.3-3.8 5.4-5.7 1-8.5-1.6-2 2.8 3.3 5.6 2.9 4.4 5.1 3.1-3.8 3.7 1 4.6-3.9 6.5-2.2 6.5-4.5 6.7-6.5-.5-4.9 6.8 4 2.8 1.4 5 3.5 3.2 1.8 5.5h-12.1l-3.2 4.3-4.2-1.6-2.2-4.6-4.9-4.9-10 1.2-9 .1-7.6.9 1.1-7.4 7.5-3.4-.9-2.9-2.7-1.1-1-5.6-5.7-2.8-2.8-3.9-3.2-3.4 9.6 3.3 5.3-1 3.4.8.9-1.4 3.9.6 6.6-2.7-.8-5.4 2.3-3.7h4.1l.2-1.7 4-.9 2.1.6 1.8-1.8-1.1-3.9 1.4-3.8 3.1-1.7-3.1-4.2 5.2.2.9-2.3-.8-2.5 2-2.7-1.4-3.2-1.9-2.7 2.4-2.8 5.3-1.3 5.9-.8 2.4-1.1 2.9-.8 4.7 3 2.9 5zm-105.4 62.8-1.3-2.2 1.4-2.1.7.5-.2 2.7zm-12.4 58.2-2.2-4.5-5.2-10.6 16.3-6.4 2.6-12.8-3-4.6v-2.6l1.3-2.6-.2-2.6 2.4-1.3-1.1-.9v-4.2h2.8l3 4.4 3.3 2.3 4.1.9 3.4 1.1 2.9 3.7 1.7 2.1 2 .9.2 1.4-1.7 3.8-.7 1.8-2.2 2.1-1.7 4.4-2.5-.4-1 1.6-.7 3.2 1.1 4.3-.5.8h-2.5l-3.3 2.4-.3 3.1-1.2 1.4-3.5-.1-2 1.6.2 2.6-2.6 1.8-3.1-.6-3.6 2.2zm185.2-72 .2 2.7 1.5 4.1-.1 2.5-4.6.1-6.9-1.5-4.3-.6-3.8-3.2-7.7-.9-7.8-3.6-5.8-3.1-5.8-2.4.9-6 2.8-3 1.9-1.5 4.8 2 6.4 4.2 3.3.9 2.5 3.1 4.5 1.2 5 2.9 6.5 1.4zM1075.4 13.7l7.4 1.5-4.4 2.4-10.1.5-10.7-.8-1-1.2h-5.1l-4.3-2 10.5-1.2 5.4 1 3.1-1.3zm-24.4 3 12.6 3.4-8.6 1.8-1.2 3.4-3 .9-.9 4-4.4.2-8.5-2.9 3-1.7-5.7-1.4-7.7-3.9-3.2-3.5 9.3-1.6 2.3 1.5h5l1-1.5 5.2-.2zm25.6 8.5-7.6 1.9-6.8-1.1 2.2-1.2-2.6-1.5 7.3-.9 1.9 1.7zm37.1 42.3-6.4 2.1-3.2.5.8-3.8-5.8-2.1-5.9 1.8-1.1 4-3.4 2.4-4.7-1.3-5.3.2-5.1-2.8-2.2 1.4-2.6.2.1 3.6-8-.9-.6 3.1h-4l-2.3 3.9-3.4 6.1-5.7 7.9 1.8 2-1.3 2.2-4.3-.1-2.4 5.4 1 7.7 3.1 2.9-.8 6.9-3.4 4-1.8 3.4-3.3-3.6-8.6 6.8-6.1 1.4-6.5-3-1.8-6.3-2-13.5 4-3.7 11.3-4.9 8.1-5.9 7.2-7.8L1048 77l6.4-4.1 10.3-6.8 8.5-2.4 6.7.3 5.2-4.4 7.4.2 7-1 13.7 3.9-4.9 1.4zm-594.1 338-.5.7-.5 1.4.4 2.3-1.5 2.2-.8 2.6-.5 2.8.2 1.7-.1 2.9-.9.6-.7 2.8.2 1.7-1.2 1.6.1 1.7.8 1.1-1.4 1.4-1.7-.5-.8-1.3-1.8-.5-1.3.8-3.6-1.7-.9.8-1.8-2-2.5-2.6-1.1-2.1-2.2-2.1-2.5-2.9.7-1 .8 1 .5-.4 1.8-.3.8-1.5h.8l.2-3.2 1.3-.1h1.2l1.4-1.7 1.5 1.3.6-.8 1.2-.8 2.1-1.7.2-1.4.5.1.9-1.5.6-.2.9 1 1.1.2 1.3-.8h1.4l2-.8.9-.9zm546.6 16.2 2.3 2.5-.6 1.2-.3 2.1-4.7 5-1.4 4.1-.8 3.3-1.2 1.5-1.1 4.5-3 2.6-.8 3.2-1.3 2.6-.5 2.7-3.9 2.2-3.2-2.7-2.1.1-3.4 3.8h-1.6l-2.7 6.2-1.4 4.6-5.9 2.3-2.1-.3-2.2 1.4-4.5-.1-3.1-4.1-1.9-4.6-4-4.2h-9.2l.3-10.3-.2-4.1 1.1-4 1.7-2 2.8-4-.6-1.7 1.1-2.6-1.3-3.8.2-2.1.4-5.8 1.6-2.6.8-3.7 1.4-1.3 6.1-.8 5.6 2.4 2.1 2.4 2.9.1 2.7-1.5 6.8 3.3 2.9-.2 3.3-2.7 3.3.2 1.6-.9 3 .3 4.4 1.9 4.3-3.6 1.4.3 3.9 7zm2.4-66.7 1.6 10 2.2 1.7.1 2 2.4 2.2-1.2 2.8-1.8 13-.2 8.4-7 6-2.3 8.5 2.4 2.4v4.1l3.7.1-.6 3.1-1.5.3-.2 2.1-1 .1-3.9-7-1.4-.3-4.3 3.6-4.4-1.9-3-.3-1.6.9-3.3-.2-3.3 2.7-2.9.2-6.8-3.3-2.7 1.5-2.9-.1-2.1-2.4-5.6-2.4-6.1.8-1.4 1.3-.8 3.7-1.6 2.6-.4 5.8-4.3-3.7h-2l-1.9 1.9.1-4.4-6.5-1.5-.2-3.1-3.1-4.2-.8-2.9.5-3.1 3.6-.3 2-2.3 7.7-.5 5-1 .4-4 3.1-4.3-.1-14.8 7.8-2.8 16-12.6 18.8-12.3 8.8 2.8 3.2 3.5zm47.6 259.3 4.6-1.4 3.6.3 2.2 1.5v.5l-3.2 1.5h-1.7l-3.7 2.5-2-2.7-8.7 2.3-4.2.2-.8 22.9-5.5.2-.6 18.7-1.1 23.7-5 3.3-2.9.5-3.4-1.2-2.5-.5-.8-2.7-2-1.8-2.8 3.2-3.9-4.9-2-4.6-1-6.3-1.2-4.6-1.6-9.9.1-7.7-.6-3.5-2.1-2.7-2.8-5.3-2.8-7.7-1.1-4-4.4-6.3-.3-4.9 2.7-1.2 3.4-1.1 3.6.2 3.3 2.9.8-.5 22.7-.2 3.8 3 13.5.9zm537.9-139-5-1.1h-6.5l-1.7 7.3-2.1 2.2-2.6 8.9-4.6 1.4-5.4-1.8-2.7.6-3.3 3.2-3.6-.4-3.7 1.3-3.9-3.7-1-4.3 4.2 2.2 4.3-1.2 1-5.4 2.4-1.2 6.8-1.4 3.8-5.1 2.6-4 2.8 3.3 1.1-2.2 2.7.2.1-4.1.1-3.2 4.1-4.4 2.6-5 2.3-.1 3.1 3.3.4 2.8 3.8 1.8 4.8 1.9-.2 2.5-3.8.3 1.1 3.2zm-89.8-13.4 1.4.6 3.5 3.9 2.5 4.3.6 4.3-.5 2.9.6 2.2.5 3.8 2.1 1.8 2.3 5.7v2.1l-4 .5-5.5-4.8-6.8-5.1-.8-3.3-3.4-4.3-1-5.3-2.2-3.5.4-4.7-1.4-2.7.9-1.1 4.8 2.8.6 3.3 3.7-.8zm-382 127h.4l1.9 2.1 2.2 4.6.1 8.3-2.5 1.3-1.9 4.5-3.5-4-.2-4.5 1.3-3-.2-2.6-2.2-1.6-1.5.6-3.2-3.1-2.9-1.6 2-6 1.8-2.2-.9-5.4 1.3-5.2 1-1.7-1.3-5.4-2.6-2.9 5.5 1.2 1 1.7-.1.8 1.8 4.1.2 7.7-1.8 3.6 1.6 4.7-.2 2.8 1.2 1.9-.1 2.4.9 1.4 1-1.6 1.9 2.5.2-.8-1-3.4-1.1-.3zM959.2 341.5l-8.5.1 2.4 27.7 2.5 27.7 1 .8-1.3 4.5-22.5.1-.9 1.4-2.1-.4-3.2 1.3-3.9-1.8-1.8.1-1 3.8-1.9 1.2-3.6-4.4-3.4-4.8-3.6-1.7-2.7-1.8h-3.1l-2.8 1.4-2.7-.5-2 2-.4-3.4 1.6-3.2.8-6-.4-6.4-.6-3.2.6-3.2-1.4-3-2.8-2.8 1.3-2.1h21.7l-.9-9.3 1.5-3.3 5.2-.5.2-16.5 18 .4.2-9.8zm207.5 332h-4.1l-.3-2.9-.6-2.9-.4-2.3 1.4-7.1-1.1-4.6-2.2-9 6.2-7.3 1.7-4.6.8-.6.9-3.8-.8-1.9.4-4.8 1.3-4.4.4-8.2-2.8-2-2.7-.5-1.1-1.6-2.6-1.3-4.7.1-.2-2.4-.4-4.6 17.2-5.3 3.2 3.1 1.5-.6 2.2 1.6.2 2.6-1.3 3 .2 4.5 3.5 4 1.9-4.5 2.5-1.3-.1-8.3-2.2-4.6-1.9-2.1h-.4l-.6-7.3 1.5-6.1 2.2-.2 6.7 1.8 1.5-.8 3.9-.2 2.1-1.9 3.4.1 6.2-2.5 4.6-3.7.9 2.8-.5 6.4.5 5.7-.2 10 .8 3.1-1.9 4.6-2.4 4.5-3.7 4-5.3 2.4-6.5 3.1-6.6 6.9-2.2 1.2-4.2 4.6-2.3 1.4-.8 4.6 2.4 4.9.9 3.7v2l1-.4-.5 6.3-1.1 3 1.2 1.1-1 2.7-2.4 2.3-4.7 2.1-6.9 3.5-2.5 2.4.3 2.7 1.3.4zm329.5-492 4-1.2 5.7-.8 5.4.9 6.6 2.9 4.9 3.2h4.6l6.8 1 3.6-1.6 5.9-1 4.4-4.4 3.4.7 3.9 2.1 5.6-.6.6 4.7.3 6.3 2.8 2.5 2.3-.8 5.5 1 2.5-2.3 5.2 2 7.2 4.4.8 2.2-4.4-.7-6.8.8-2.5 1.8-1.3 4.2-6.4 2.4-3.2 3.4-5.9-1.3-3.2-.6-.5 4.1 2.9 2.4 1.9 2.1-2.4 2.2-2 3.4-4.9 2.2-7.6.2-7.2 2.2-4.4 3.4-3.3-1.9h-6.2l-9.4-3.9-5.6-.9-6.4.9-11.3-1.5-5.6.2-4.7-3.8-5-5.8-3.4-.7-8-4-7.2-.8-6.5-1.1-3-2.8-1.4-7.3-5.8-5.1-8.2-2.3-5.7-3.3-3.3-4.4 4.7-1.1 6.7-5.3 5.9-2.9 5.3 1.9 5.2.1 4.8 2.9 5 .2 8 1.6 2.4-4.4-4-3.6 1.3-6.4 7 2.5 4.8.8 6.7 1.6 3.6 4.6zm-405.6 45.7-.8 1.4-1.4.6-.4-1.2-1.9 3.1.5 2.1-1.1-.5-1.7-2.1-2.3-1.3.5-1 .4-3.5 1.6-1.5.9-.6 1.4 1.1.9.9 1.7.7 2.1 1.3zm457.8 137-4.1 4.2-.8 2.3-3 1.5-2.8 2.8-3.9.3-1.5 6.9-2.2 1.2 3.5 5.6 4.1 4.7 2.9 4.3-1.4 5.5-1.8 1.2 1.8 3.2 4.3 5.1 1 3.6.2 3 2.7 5.9-2.6 6-2.2 6.6-.9-4.8 1.3-4.9-2.2-3.8-.2-7-2.6-3.4-2.7-7.6-2-8.1-3.1-5.4-3.2 3.3-5.8 4.5-3.3-.5-3.6-1.5.9-8-2-6-5.3-7.4.3-2.3-3.4-.9-4.6-5.2-1.1-5.2 2.1 1-.6-4.6 2.5-1.5-1-2.7 1-2.2-.9-6.7 4.6 1.5 1.6-5.3-.3-3.1 2-5.4-.9-3.7 6.2-4.4 4.2 1.1-1.4-3.9 1.7-1.2-1-2.4 3.1-.5 2.7 3.8 2.7 1.5 1.3 4.9.9 5.3-4.2 5.4.7 7.6 5.6-1.1 2.4 5.9 3.7 1.3-.8 5.3 4.5 2.4 2.6 1.2 3.8-1.9zm-538.2 14.6.1 14.8-3.1 4.3-.4 4-5 1-7.7.5-2 2.3-3.6.3h-3.6l-1.4-1.2-3.1.9-5.3 2.7-1.1 2-4.3 2.8-.8 1.7-2.4 1.3-2.7-.9-1.5 1.6-.9 4.4-4.5 5.3.2 2.2-1.6 2.7.4 3.7-2.4 1-1.3.8-.9-2.7-1.6.7-1-.1-1 1.8h-4.4l-1.5-1-.8.6-1.7-1.9.3-1.9-.7-.7-1.2.6.3-2.1 1.1-1.6-2.3-2.7-.6-1.8-1.3-1.4-1.1-.2-1.3.9-1.9.9-1.5 1.4-2.4-.5-1.6-1.7-.9-.2-1.5.9h-.9l-.3-2.4.3-2-.5-2.4-2-1.8-1.1-3.7-.2-4 1.9-1.2 1-3.8 1.8-.1 3.9 1.8 3.2-1.3 2.1.4.9-1.4 22.5-.1 1.3-4.5-1-.8-2.5-27.7-2.4-27.7 8.5-.1 18.6 14 18.7 14 1.3 3 3.5 1.8 2.6 1.1.1 4.1zm95.3-142.2-1 .2-.8 1.1-2.8-.1-1.8 1.4-3.4.5-2.3-1.5-1-2.7.5-2.2.7.1.1-1.3 2.9-1 1.2-.3 1.7-.3 2.4-.2 2.8 2.1zm-656.2 99.3 2.2-.2-3.2 5.7-1.8 4.6-1.8 8.6-1.1 3.1.4 3.5 1.3 3.2.4 4.9 3 4.8.8 3.7 1.7 3.1 5.7 1.7 1.9 2.7 5.2-1.8 4.3-.6 4.4-1.2 3.6-1.1 3.9-2.6 1.8-3.7 1.2-5.4 1.2-1.9 4-1.7 6.1-1.5 4.9.3 3.4-.6 1.2 1.4-.6 3.1-3.5 3.8-1.8 3.9.9 1.1-1.2 2.8-2.1 5-1.2-1.7-1.1.1-1.1.1-2.5 3.9-.9-.8-.7.3-.1 1-5.2-.1h-5.2l-.5 3.6-2.5.1 1.8 2.1 1.9 1.5.5 1.4.8.4-.4 2.2h-7.2l-3.3 5.2.7 1.2-.8 1.5-.4 1.9-5.6-6.9-2.6-2.1-4.4-1.7-3.2.5-4.8 2.4-2.9.6-3.7-1.7-4.1-1.2-4.8-2.9-4.1-.9-5.9-3-4.3-3.1-1.1-1.7-3.1-.4-5.4-2-1.9-2.9-5.4-3.7-2.2-4-.8-3.2 1.9-.6-.3-1.8 1.6-1.7.4-2.2-1.5-2.9v-2.5l-1.3-3.3-3.8-6.4-4.6-5-1.9-4-4.1-2.6-.7-1.6 1.7-3.9-2.4-1.5-2.5-3.2-.2-4.4-2.8-.6-2.3-3.3-1.7-3.2.3-2-1.5-4.8-.3-4.9.8-2.5-3.1-2.6-1.9.3-2.4-1.7-1.8 2.6-.1 3-1 4.9 1 2.6 2.8 4.4.4 1.6.7.4.1 2.2 1-.1v4.2l1.3 1.6.5 2.3 2.7 3.2.4 6 1 2.8.9 3-.3 3.4 2.6.2 1.6 2.9 1.5 2.9-.3 1.2-2.8 2.3h-1l-.7-3.9-2.9-3.7-3.4-3.1-2.5-1.6 1.2-4.7-.1-3.5-2.1-2-3.1-2.8-.9.8-1-1.7-3-1.5-2.2-3.8.5-.4 2.1.3 2.7-2.4 1-2.9-2.9-4.6-2.6-1.7-.8-4-.6-4.3-.8-5.1-.2-5.8 6.3-.5 7.1-.7-.9 1.3 7 3.1 10.9 4.5H399.8l.8-2.7h9.4l1.3 2.3 2.1 2.1 2.4 2.8.8 3.3.4 3.6 2.3 1.9 4 1.9 4.8-5 4.5-.2 3.2 2.6 1.6 4.4.9 3.8 2.4 3.6.2 4.5.9 3 3.9 2zm818.6 253 .4 7.7 1.3 3-.7 3.1-1.2 1.8-1.6-3.7-1.2 1.9.8 4.7-.7 2.8-1.7 1.4-.7 5.5-2.7 7.5-3.4 8.8-4.3 12.2-2.9 8.9-3.1 7.5-4.6 1.5-5.1 2.7-3-1.6-4.2-2.3-1.2-3.4v-5.7l-1.5-5.1-.2-4.7 1.3-4.6 2.6-1.1.2-2.1 2.9-4.9.8-4.1-1.1-3-.8-4.1-.1-5.9 2.2-3.6 1-4.1 2.8-.2 3.2-1.3 2.2-1.2 2.4-.1 3.4-3.6 4.9-4 1.8-3.2-.6-2.8 2.4.8 3.3-4.4.3-3.9 2-2.9 1.8 2.8 1.4 2.7zm-138.5-378.6-1.3-2.9.2-2.7-.6-2.7-3.4-3.8-2-2.6-1.8-1.8-1.6-.7 1.1-.9 3.2-.6 4 1.9 2 .3 2.6 1.7-.1 2.1 2 1 1.1 2.6 2 1.6-.2 1 1 .6-1.3.5-3-.2-.6-.9-1 .5.6 1.1-1.1 2.1-.6 2.1zM974.8 276l1.9 4.1.3 3.9 1.9 6.8 1.4 1.4-1 2.5-7.1 1.1-2.5 2.3-3.1.6-.3 4.8-6.4 2.5-2.1 3.2-4.5 1.7-5.4 1-8.9 4.8-.1 7.6h-.9l.1 3.4-3.4.2-1.8 1.5h-2.5l-2-.9-4.6.7-1.9 5-1.8.5-2.7 8.1-7.9 6.9-2 8.9-2.4 2.9-.7 2.3-12.5.5h-.1l.3-3 2.2-1.7 1.9-3.4-.3-2.2 2-4.5 3.2-4.1 1.9-1 1.6-3.7.2-3.5 2.1-3.9 3.8-2.4 3.6-6.5.1-.1 2.9-2.5 5.1-.7 4.4-4.4 2.8-1.7 4.7-5.4-1.2-7.9 2.2-5.6.9-3.4 3.6-4.3 5.4-2.9 4.1-2.7 3.7-6.6 1.8-4 3.9.1 3.1 2.7 5.1-.4 5.5 1.4zm138-139.5 2.5 1.3 1 2.9 2.1 3.6-4.6 2.3-2.7 1-5-2.9-2.5-.4-.9-1.2-4.5.6-7.9-.4-5.1 1.8-.5-4.5 1.7-3.8 4.1-2 4.4 4.5 3.7-.2.1-4.6 3.8-1 2.1.7 4.4 2.2zm-95.9 48.9-1.4.1-1.1-.5.4-3.5 1.3-.2 1 1.4zm94.2-37.8 1 2.7-3.6 2-.5 3.4-4.8 2.3h-4.7l-1.4-1.9-2.5-.7-.6-1.5.2-1.7-2.2-.9-5.1-1.1-1.7-5.1 5.1-1.8 7.9.4 4.5-.6.9 1.2 2.5.4zm28 550.3-2 .7-3.7-5 3.2-4 3.1-2.5 2.7-1.4 2.2 2 1.7 2-1.9 3.1-1.1 2.1-3.1 1zM1445.9 462l-4.8 1.5-2.9-5.1-1.4-9.2 2-10.4 4.1 3.5 2.8 4.5 3.1 6.7-.6 6.7zm-323.3-162.9-1.7 3.1 1 2.8-1.1 3.9 2 5.2 1.3 22.8 1 23.7.5 12.8h-6.4v2.7l-22.6-12.3-22.5-12.3-5.5 3.5-3.8 2.4-3.2-3.5-8.8-2.8-2.5-4-4.5-3-2.5 1.2-2.1-3.6-.2-2.7-3.4-4.7 2.2-2.7-.6-4 .6-3.5-.4-3 .8-5.2-.4-3-1.9-5.7 2.6-1.4.4-2.8-.6-2.6 3.6-2.5 1.6-2.1 2.6-1.8.1-4.9 6.4 2.2 2.3-.6 4.5 1.1 7.3 2.9 2.8 5.7 4.9 1.2 7.8 2.7 6 3.2 2.5-1.7 2.5-2.9-1.6-4.9 1.5-3.2 3.7-3 3.7-.8 7.4 1.3 2 2.8 2 .1 1.8 1.1 5.4.7zm-184 153.4-.2 1.8.5 3.1-1.2 2.9 1.6 1.8 1.8.4 2.4 2.7.2 2.5-.6.8-.4 5.3-1.5.1-5.8-3.1-5.2-4.9-4.8-3.5-3.8-4.1 1.4-2.1.3-1.9 2.6-3.4 2.6-3 1.3-.2 1.4-.7 2.4 3.9-.4 2.6 1.1 1.4h1.6l1.1-2.6zm240.5-164.3-1.4.1-.4 1.1h-1.8l1.3-5.3 2.2-4.5v-.2l2.5.3 1.2 2.5-2.7 2.5zm410.7 122.4-5.3-2.3-2 4.4-5-2.5 1.5-2.9-.4-5.4-5.3-5.6-1.3-6.4-5-5.2-4.3-.4-.8 2.2-3.2.2-1.9-1.1-5.3 3.8-1-5.8.4-6.7-3.8-.3-.9-3.9-2.7-2 .8-2.3 4.1-4.2.8 1.5 3 .2-2-7.4 2.7-.9 4 5.1 3.5 5.8h6.8l3 5.6-3.3 1.7-1.2 2.3 7.3 3.9 5.7 7.6 4.4 5.6 4.9 4.5 2 4.5zm-342.3-101.2 1.5 2.8-.3 1.5 2.4 4.8-3.9.2-1.7-3.1-5-.6 3.3-6.2zm405.4-49.9v-.6l2.5.2.6-2.8 3.6-.4 2-.4V254l8.3 7.5 3.3 4.2 3.4 7.4-.5 3.5-4.3 1.2-3.1 2.7-4.6.5-2.1-3.5-1.1-4.8-5.3-6.6 3.4-1.1zm-63.1 151.1 1.8 4.3.1 7.7-9 5 2.8 3.8-5.9.5-4.6 2.6-4.8-.9-2.6-3.4-3.5-6.6-2.1-7.8 3.1-5.3 7.1-1.2 5.3.9 5 2.5 2-4.4zm-189.3-180.4-.2 1.4-6.9 3.4-1 2.6-6.4.7-.6 4.1-5.8-.9-3.2 1.3-4.1 3 1.2 1.5-1.1 1.4-9.6 1-7.1-2.1-5.5.5-.6-3.6 6 1 1.4-1.9 4.1.6 5.3-4.6-7.2-3.4-3.2 1.6-4.6-2.4 3-4.1-1.7-.6.3-2.8 3.1-.9 9.2 2.2-.5-3.7 2.5-1.4 8.2 2.7 1.6-.7 8.6.2 7.9.6 3.4 2.3zm-177 246.5-4.9 7.2.2 23.4 3.3 5.3-4 2.6-1.4 2.7-2.2.4-.8 4.6-1.9 2.6-1.1 4.2-2.3 2.1-8.1-6.4-.3-3.7-20.5-13.1.4-4.7-1.4-2.5v-.3l1.6-2.6 2.8-4.2 2.1-4.7-2.6-7.4-.7-3.2-2.7-4.5 3.4-3.8 3.8-4.2 2.9 1.1.1 3.6 1.9 2.1h4l7.2 5.4 1.8.1 1.3-.2 1.3.7 3.8.6 1.6-2.7 5.2-2.7 2.3 2.2zm114.8-316.2 4.4-.3 9.2-5.8-.8 2 8.4 4.7 18.3 15.6 1.1-3.2 8.4 3.5 6.2-1.6 3.3 1.1 4.1 3.6 4 1.2 3.3 2.7 6-.9 4.4 3.8-1.9 4.2-3.8.6 2.5 6.2-1.6 2.9-10.8-2.1 1 11.3-2 1.4-9.1 2.5 8.8 11-2.9 1.6 1.7 3.7-3.5-1-3.4-2.3-7.9-.6-8.6-.2-1.6.7-8.2-2.7-2.5 1.4.5 3.7-9.2-2.2-3.1.9-.3 2.8-2.6 1.2-5.4 4.4-.9 4.6h-2l-2.3-3-6.7-.2-2.5-5.2-2.6-.1-1.5-6.4-7.6-4.6-8.6.5-5.7.9-6.6-5.7-4.8-2.4-9.2-4.5-1.1-.5-12 3.7 6.2 23.4-2.6.3-4.8-5-3.9-1.8-5.6 1.3-1.8 2.2-.6-1.6.6-2.6-1.5-2.2-6.5-2.2-3.7-5.7-3.2-1.6-.6-2.1 5.1.6-1-4.6 4.1-1 4.7.9-.7-6.1-1.9-3.9-5 .3-4.7-1.5-5.1 2.7-4.4 1.4-2.8-1.1-.2-3.2-4.3-4.2-3.6.2-5.3-4.2 1.7-4.8-1.8-1.2 2.2-6.9 6 3.6-.6-4.5 8.1-6.7 7.6-.2 12 4.3 6.6 2.5 4.4-2.6 7.7-.1 7.3 3.2.8-1.9 7 .3.2-2.9-9.4-4.3 3.5-3-1.5-1.6 4-1.6-5.1-4.2 1.4-2.1 17-2.1 1.7-1.5 10.9-2.3 3.1-2.5 9.1 1.3 4.4 6.3 4.3-1.5 7.1 2.1zm382.9 58.1 4.5 1.3 1.8-2.6 6 7.1-6.4 1.7-.4 6.3-10.9-4.3 1.6 6.9-5.7.1-4.7-6.3-.6-4.9 5.2-.3-4.4-8.8-1.8-4.9 10.5 6.6zm11.9 44.8.6 5.1 2.5 3.2-.6 4.5-5.4 3-9.2.4-4.4 7.4-4.7-2.5-2.4-4.8-8.6 1.4-5.1 3-6.2.2 7.4 4.7.8 10.9-2.5 2.7-3.6-2.5-.9-5.8-4.1-1.8-4-4.4 4.3-2 1.1-4.1 3.9-3.3 2-4.4 9.7-1.9 6.3 1.3v-11.4l5.1 3.1 4.5-6.4 1.7-2.5-1-7.8-5.1-7.2-.2-4 4.8-1.2 8.2 8.9 2.8 5.1-1.3 6.5zm-24.6 19.2 1.6 2.2-1.3 3.9-3.1-2.1-2.1 1.5.1 3.7-4.3-1.8-1.2-3 1.3-3.9 3.4.8 1-2.7zm-510.4 12.7-.9 1-10.4 3.2 6 6.5-1.6 1-.7 2.2-4.1.9-1.1 2.3-2.1 2-6.2-1.1-.3-.9 1.8-10.2-.4-2.5.6-1.9-.4-4 .7-2 6.3 2.6 9.7-6.9zm-641.6 91.8-1.8 1.1-3-1.1-2.9-2.3.8-1.5 2.4-.4 1.3.2 3.7.6 2.7 1.5.8 1.8zm499.4-183.2-.4 3.1 1.4 2.7-4.1-1-3.9 2.3.4 3.1-.5 1.8 1.9 3.2 5 3.2 2.9 5.3 6.1 5.1 4-.1 1.4 1.4-1.4 1.3 4.8 2.3 4 1.9 4.7 3.4.6 1.1-.8 2.3-3.1-3-4.6-1-1.9 4.1 3.9 2.4-.4 3.3-2.1.4-2.5 5.5-2.2.5-.1-2 .9-3.4 1.1-1.4-2.3-3.7-1.8-3.2-2.2-.8-1.8-2.7-3.4-1.2-2.4-2.6-3.8-.4-4.3-2.8-4.9-4.2-3.7-3.6-1.9-6.3-2.6-.7-4.2-2.1-2.3.8-2.9 3-2.1.4.5-2.7-2.8-.8-1.5-4.9 1.7-1.9-1.5-2.4.1-1.8 2.2 1.4 2.5-.3 2.7-2.2.9 1 2.4-.2 1-2.5 3.8.8 2.1-1.1.3-2.5 3.1.9.5-1.2 4.9-1.1 1.3 2.1zm-21.7 33.5 3.3 4.5-.4 8.5-2.4-.4-2.1 2.1-2-1.7-.5-7.7-1.3-3.6 2.9.3zm34 19-1.7 5.1.9 1.9-.9 3.3-4.2-2.4-2.7-.7-7.5-3.2.5-3.3 6.2.6 5.4-.7zm110.9 31.8.4 2.6-.6 1h.1l-.7 2-2.1-.8-.7 4.2 1.5.7-1.3.9-.1 1.7 2.5-.8.4 2.5-1.8 10.2-.7-1.6-3.9-9.4 1.4-2.1-.4-.4 1.1-3 .6-4.8.6-1.7H1177.3l.4-1.1zM924.8 84.5l-1.4 3.6 4.4 3.8-6.1 4.3-13.1 3.9-3.9 1.1-5.6-.9-11.9-1.8L892 96l-9-2.7 7.9-1.1.1-1.7-8.8-1.3 3.6-3.7 6.6-.8 6 3.8 7-3 5.1 1.5 7.3-2.9zm298.7 178.7 4.7 7.6 3.8 2 .9 3.7-2.3 2.2-.5 5 4.6 6.1 7.1 3.6 3.5 4.8-.2 4.7h1.7l.5 3.4 3.5 3.4-3.3-.3-3.7-.6-3.3 6.2-10.2-.5-16.8-12.9-8.6-4.5-6.8-1.8-3.1-7.8 11-6.7 1-7.7-1.2-4.7 2.7-1.6 2.1-4 2.1-1 6.3.9 2.1 1.6zm5.5-10 1.8-.2 5.3-4.7 1.9-.5 1.9 1.9-1.2 3.1 3.9 3.4 1.3-.4 2.5 4.8 5.3 1.3 4.3 3.2 7.7 1.1 8-1.7.2-1.5 4.4-1.2 3-3.7 3.6.2 2-1.2 3.9.6 6.6 3.3 4.3.7 7.3 5.6 4 .3 1.7 5.3-.6 8-.5 4.7 2.5 1-1.6 3.5 2.7 5.1 1.2 4.1 4.3 1.1 1.1 4.1-3.9 5.8 3.2 3.4 2.8 3.9 5.7 2.8 1 5.6 2.7 1.1.9 2.9-7.5 3.4-1.1 7.4-10.6-1.9-6.2-1.5-6.3-.8-3.3-7.9-2.8-1.1-4.1 1.1-5.1 3.1-7-2.1-6.1-5-5.5-1.8-4.4-6.1-5.2-8.5-2.8 1-3.7-2.1-1.7 2.5-3.5-3.4-.5-3.4h-1.7l.2-4.7-3.5-4.8-7.1-3.6-4.6-6.1.5-5 2.3-2.2-.9-3.7-3.8-2-4.7-7.6-3.8-5.1.7-2-2.9-7.3 3.3-1.9 1.2 2.5 3.2 2.9zm-272.3-95 .7 4.4-3.9 5.5-8.8 3.6-6.8-.9 4.3-6.4-2.1-6.2 6.7-4.8 3.7-2.8.9 3.2-1.2 3.3 3-.1zM1427.6 308l-2.8 3-.9 6 5.8 2.4 5.8 3.1 7.8 3.6 7.7.9 3.8 3.2 4.3.6 6.9 1.5 4.6-.1.1-2.5-1.5-4.1-.2-2.7 3.1-1.4 1.5 5.1.4 1.2 5.5 2.5 3.2-1 4.7.4 4.5-.2-.5-3.9-2.6-2.1 4.2-.8 3.9-4.8 5.4-4 4.9 1.5 3.2-2.7 3.6 4-1.2 2.7 6.1 1 1 2.4-1.7 1.2 1.4 3.9-4.2-1.1-6.2 4.4.9 3.7-2 5.4.3 3.1-1.6 5.3-4.6-1.5.9 6.7-1 2.2 1 2.7-2.5 1.5-4.4-10.2h-1.5l-.3 4.2-3.6-3.4 1.2-3.6 2.4-.4 1.6-5.4-3.4-1.1-5.1.1-5.4-.9-1.2-4.5-2.7-.3-4.9-2.8-1.2 4.4 4.6 3.4-3 2.4-.9 2.3 3.7 1.7-.3 3.9 2.6 4.8 1.6 5.3-.5 2.4-3.8-.1-6.6 1.3.9 4.8-2.4 3.8-7.5 4.4-5.3 7.5-3.8 4.1-5 4.2.3 2.9-2.6 1.6-4.8 2.3-2.6.3-1.2 4.9 1.9 8.4.7 5.3-1.9 6.1.7 10.9-2.9.3-2.3 4.9 1.9 2.2-5.1 1.8-1.7 4.3-2.2 1.9-5.6-6-3.1-9-2.5-6.5-2.2-3-3.4-6.2-2-8-1.4-4-5.9-8.8-3.5-12.5-2.6-8.2-.8-7.8-1.7-6-7.7 3.9-4-.8-8.1-7.8 2.4-2.3-1.9-2.5-7.1-5.5 3.2-4.3h12.1l-1.8-5.5-3.5-3.2-1.4-5-4-2.8 4.9-6.8 6.5.5 4.5-6.7 2.2-6.5 3.9-6.5-1-4.6 3.8-3.7-5.1-3.1-2.9-4.4-3.3-5.6 2-2.8 8.5 1.6 5.7-1 3.8-5.4 7.7 7.6.8 5.2 3 3.3.6 3.3-4.1-.9 3.2 7.1 6.2 4zm157.6 231.4-6.2.1-4.5-5.3-7.1-5.3-2.3-3.9-4.1-5.2-2.7-4.8-4.2-9-4.9-5.4-1.7-5.5-2.2-5-5.2-4-3.1-5.5-4.4-3.6-6.2-7.1-.6-3.3 3.6.3 8.9 1.2 5.2 6.3 4.6 4.4 3.2 2.6 5.5 6.9 5.8.1 4.8 4.4 3.4 5.4 4.3 3-2.3 5.2 3.3 2.2 2 .2.9 4.5 1.9 3.5 4.1.6 2.6 4.1-1.7 8zm22.8-50.5 1 4.3 3.9 3.7 3.7-1.3 3.6.4 3.3-3.2 2.7-.6 5.4 1.8 4.6-1.4 2.6-8.9 2.1-2.2 1.7-7.3h6.5l5 1.1-3 5.8 4.4 6-.9 3 6.4 5.9-6.7.8-1.8 4.4.2 5.8-5.5 4.4-.4 6.4-2.5 9.8-.7-2.3-6.6 2.9-2.1-3.9-4-.4-2.8-2.1-6.8 2.4-1.9-3.2-3.8.4-4.6-.7-.6-8.6-2.8-1.8-2.7-5.5-.8-5.6.6-6zm108 5.7-.3 5.6-2.9-.7-.9 3.9 2.3 3.4-1.6.8-2.2-4.1-1.7-8.2 1-5.1 1.8-2.3.5 3.5 3.4.5zm-19.6-1.9-4.5 6.4-4.3 1.2-5.4-1.2-9.5.3-4.9.9-.8 4.9 5 5.7 3.1-2.9 10.6-2.2-.5 2.9-2.5-.9-2.5 3.8-5.1 2.5 5.1 8.2-1.1 2.2 4.8 7.4-.3 4.2-3.1 1.9-2.1-2.3 3-5.2-5.7 2.5-1.3-1.8.8-2.5-3.9-3.8.7-6.2-3.9 1.9.2 7.5-.2 9.2-3.7.9-2.3-1.8 1.9-5.9-.6-6.2-2.4-.1-1.6-4.4 2.5-4.2.9-5.1 3-9.7 1.1-2.6 4.8-4.8 4.5 1.9 7.1.9 6.5-.3 5.6-4.6zm89.1 25.8-1 20.9-1.6 21-4.6-5.3-5.6-1.3-1.5 1.8-7.2.2 2.8-5.2 3.7-1.8-1-7-2.3-5.3-10.7-5.5-4.6-.5-8.3-6-1.8 3.2-2.2.5-1.1-2.3.1-2.8-4.2-3.2 6.2-2.3 4 .1-.4-1.7h-8.3l-2.2-3.8-5-1.2-2.3-3.2 7.6-1.5 2.9-2.1 9.1 2.6.9 2.4 1.3 10.4 5.7 3.8 5-6.8 6.6-3.8h5l4.8 2.2 4.1 2.3zm-59.8 3.2 1.8 4.9-4.6-2.7-4.7-.5-3.3.4-3.9-.2 1.5-3.5 7-.3zm-18.4 2.3-2.2 2.2-3.8-1.2-1-2.8 5.7-.3zm41.4 17.7-3.2 4.4-.2-4.8 1.1-2.3 1.3-2.2 1.2 1.9zm-147.9 3.6 10.8.7 1.4-2.7 10.3 3.1 1.8 4.2 8.4 1.2 6.7 3.8-6.6 2.4-6.1-2.6-5.1.2-5.8-.5-5.2-1.1-6.4-2.5-4.1-.6-2.4.8-10.2-2.7-.8-2.7-5.1-.5 4.2-6.1 6.8.4 4.4 2.5 2.4.5zm80.2 8.5-1.1 3.6-8.6 1.8-7.5-.8.2-2.4 4.6-1.3 3.4 1.9 3.8-.5zm-28.3 0 1.9 1.7 3.6-.5 1.2 2.7-6.7 1.3-3.9.9-3.1-.1 2.2-3.7h3.2zm39.6 5.1.5 1.3-.1 1.9-4.1 4.8-5 1.4-.6-.7.7-2.2 2.8-3.9zm-24.8 8.7-2.4.1-7.1-4.5 5.4-1.3 2.8 2 1.8 1.9zm-571.3-375.7 3 1.7.5 1.7-2.9 1.3-1.9 4.2-2.6 4.3-3.9 1.2-3.2-.3-3.7 1.6-1.8 1-4.3-1.2-4-2.7-1.6-.8-1.2-2.1-.8-.1 1.3-4-1.1-1.4h2.8l.2-2.6 2.7 1.7 1.9.6 4.1-.7.3-1.3 1.9-.2 2.3-.9.6.4 2.3-.8 1-1.5 1.6-.4 5.5 1.9zM586.8 375.3l.1 3.4-.7 2.5-1.5 1.1 1.3 1.9-.3 1.8-3.6-1.1-2.7.4-3.4-.4-2.7 1.2-2.8-2 .7-2.1 5.1.9 4.1.5 2.2-1.4-2.3-2.8.4-2.5-3.5-1 1.5-1.7 3.4.2zm494.7-167.7 1.5 2.5 1.7 1.8-1.7 2.4-2.4-1.4-3.5.1-4.5-1.1-2.3.1-1 1.4-2-1.5-.8 2.6 2.7 3 1.3 1.9 2.5 2.4 2.1 1.4 2.1 2.7 4.8 2.4-.5 1-5-2.3-3.2-2.3-4.8-1.9-4.7-4.6 1-.5-2.5-2.7-.3-2.1-3.3-1-1.4 2.7-1.6-2.1v-2.2l.1-.1 3.6.2.8-1 1.8 1 2 .1-.1-1.7 1.7-.7.3-2.5 3.9-1.7 1.6.8 4 2.7 4.3 1.2zM519.6 405.5l-1.9-.1-.9.9-2 .8h-1.4l-1.3.8-1.1-.2-.9-1-.6.2-.9 1.5-.5-.1-.2 1.4-2.1 1.7-1.2.8-.6.8-1.5-1.3-1.4 1.7h-1.2l-1.3.1-.2 3.2h-.8l-.8 1.5-1.8.3-.8-2-1.7-.6.7-2.6-.7-.7-1.2-.4-2.5.7-.1-.8-1.6-1.1-1.1-1.2-1.6-.6 1.3-1.6-.3-1.3.5-1.2 2.9-1.8 2.8-2.5.6.3 1.3-1.1 1.6-.1.5.5.9-.3 2.6.6 2.6-.2 1.8-.7.8-.7 1.7.3 1.3.4 1.5-.1 1.2-.6 2.5.9.8.2 1.6 1.2 1.5 1.4 1.9 1zm143.3 58-1 5.8-3.5 1.6.3 1.5-1.1 3.4 2.4 4.6h1.8l.7 3.6 3.3 5.6-1.3.3-3.2-.6-1.8 1.7-2.6 1.1-1.8.3-.6 1.3-2.8-.3-3.5-3-.3-3-1.4-3.3 1-5.4 1.6-2.3-1.2-3-2-.9.8-2.9-1.2-1.4-3 .2-3.7-4.8 1.6-1.8v-3l3.5-1 1.4-1.2-1.8-2.4.5-2.3 4.7-3.8 3.6 2.4 3.3 4.1.1 3.4 2.1.1 3 3.1zm-174.8-76-.7 5.1-1.3 7.2h1.7l1.7 1.2.6-1 1.5.8-2.8 2.5-2.9 1.8-.5 1.2.3 1.3-1.3 1.6-1.4.4.3.8-1.2.7-2 1.6-.3.9-2.8-1.1-3.5-.1-2.4-1.3-2.8-2.6.4-1.9.8-1.5-.7-1.2 3.3-5.2h7.2l.4-2.2-.8-.4-.5-1.4-1.9-1.5-1.8-2.1 2.5-.1.5-3.6h5.2zM896.3 1.4l19.9 3-6.7 1.4-13 .2-18.5.4 1.4.7 12.3-.5 9.7 1.4 7-1.2 2.4 1.4-4.5 2.4 9.2-1.6 17.1-1.5 10 .8 1.7 1.7-14.8 2.9-2.2 1-11.4.8 8.1.2-4.9 3.2-3.6 2.9-1.2 5.2 3.7 3.2-5.9.1-6.5 1.6 6.3 2.6-.1 4.2-4.2.5 4.1 4.3-8.7.4 4 2-1.6 1.8-5.7.8-5.5.1 4.2 3.4-.5 2.4-7.3-2.2-2.4 1.4 5 1.3 4.6 3.2.6 4.3-7.4 1-2.7-2.1-4.2-3 .5 3.6-5.4 2.8 10.7.2 5.5.3-11.9 4.7-12.2 4.3-12.7 1.8-4.6.1-4.9 2.1-7.5 5.8-10.2 3.9-3 .3-6.1 1.3-6.6 1.4-4.8 3.4-1.4 4-3.4 3.8-8.6 4.6.3 4.5-3.6 4.8-4.1 5.7-6.5.4-5-4.8-9-.1-3.2-3.2-.8-5.6-4.8-7.2-.7-3.7 1.5-5.1-3.7-5.1 3.3-4.1-1.9-2 7-6.4 7.2-2.1 2.6-2.2 2.8-4.2-5.5 1.9-2.6.8-4.1.7-4.2-1.7 1.5-3.7 3-2.8 3.8-.1 7.6 1.5-5.3-3.4-2.7-1.8-4.4.7-2.6-1.3 7-4.8-1.3-2L768 46l-1.4-5.4-3.6-1.9 1.4-2.1-8.1-2.9-7.7-.4-10.1.2-9.5.4-3.1-1.6-3.8-3.1 11-1.5 7.6-.2-14.6-1.3-6.5-1.9 2.2-1.8 15.7-2.2 15-2.2 2.8-1.6-8.1-1.6 4.6-1.7 14.7-2.9 5.4-.4.2-1.8 9-1.1 11-.6h10.4l2.8 1.2 10.6-2.2 7.1 1.5 4.6.3 6.2 1.3-6.7-2.1 1.6-1.7 12.7-2.2 11.6.2 5.1-1.4L870 1Zm225.6 238.5-3.2-.2-2.7-.6-6.2 1.6 4 3.6-2.5 1.1h-2.9l-3.1-3.3-.9 1.4 1.6 3.8 2.9 3-1.9 1.4 3.2 2.9 2.8 1.9.4 3.6-5-1.7 1.8 3.3-3.3.6 2.5 5.7-3.5.1-4.6-2.8-2.4-5.1-1.3-4.3-2.3-2.9-3-3.7-.5-1.8 2.2-3.1.1-2.1 1.7-.9-.1-1.7 3.4-.5 1.8-1.4 2.8.1.8-1.1 1-.2 3.8.2 4-1.8 3.9 2.3 4.6-.6-.3-3.2 2.7 1.7-1.1 4zm-9.2 32.7 3.1 2.2 4.1-.4 4 .4v1.2l2.8-.8-.5 1.9-7.6.5-.1-1-6.6-1.3zm-62.4 214.7v7.7h-8.2l-1.9.3-1.1-.9 1.9-7.2zM909.2 421l-.1 2.2-.6.7.4 2.1-.9.8-1.2.1-1.5 1-1.7-.1-2.6 3.1-2.9-2.6-2.4-.5-1.3-1.8.1-1-1.7-1.3-.4-1.4 3-1 1.9.2 1.5-.8zm-17.6-3.6.8-2.9 6.1-.1 1.3-1.6 1.8-.1 2.2 1.6h1.7l1.9-1 1.1 1.8-2.5 1.5-2.4-.2-2.4-1.3-2.1 1.5h-1l-1.4.9zm29.9 4.5.3 2.4h.9l1.5-.9.9.2 1.6 1.7 2.4.5 1.5-1.4 1.9-.9 1.3-.9 1.1.2 1.3 1.4.6 1.8 2.3 2.7-1.1 1.6-.3 2.1 1.2-.6.7.7-.3 1.9 1.7 1.9-1.1.5-.5 2.2 1.3 2.6 1.4 5.2-2.1.7-.5.9.4 1.3-.4 2.8h-.9l-1.6-.2-1.1 2.6h-1.6l-1.1-1.4.4-2.6-2.4-3.9-1.4.7-1.3.2-1.5.3.1-2.3-.9-1.7.2-1.9-1.2-2.7-1.6-2.3h-4.5l-1.3 1.2-1.6.2-1 1.4-.6 1.7-3.1 2.9-2.4-3.8-2.2-2.5-1.4-.9-1.4-1.3-.6-2.8-.8-1.4-1.7-1.1 2.6-3.1 1.7.1 1.5-1 1.2-.1.9-.8-.4-2.1.6-.7.1-2.2 2.7.1 4.1 1.5 1.2-.1.4-.7 3.1.5zm65 9.2-.4 2 2.3 3.3v4.7l.6 5 1.4 2.4-1.3 5.7.5 3.2 1.5 4.1 1.3 2.3-8.9 3.7-3.2 2.2-5.1 1.9-5-1.8.2-2.6-2.4-5.5 1.5-7.3 2.4-5.3-1.5-9.2-.8-4.8.2-3.7 9.8-.3 2.5.5 1.8-1zm229.2-203.2 5.1 1.3 2.1 2.6 3.6 1.5-1.2.8 3.3 3.5-.6.7-2.9-.3-4.2-1.9-1.1 1.1-7 1-5.6-3.2-5.5.3.3-2.7-2.1-4.3-3.4-2.4-3-.7-2.2-1.9.4-.8 4.6 1.1 7.7 1 7.6 3.1 1.2 1.2zm-243.1-98.4-5.1 6.5 4.7-.8h5.1l-1.3 4.9-4.3 5.4 4.9.3.3.7 4.2 7.1 3.2 1 2.9 7 1.4 2.4 5.9 1.1-.6 4-2.4 1.8 1.9 3.2-4.4 3.2-6.5-.1-8.4 1.8-2.2-1.3-3.3 2.9-4.5-.7-3.6 2.4-2.5-1.2 7.3-6.5 4.4-1.4-7.6-1-1.3-2.5 5.1-1.9-2.5-3.3 1-4 7.1.6.8-3.6-3.1-3.7-.1-.1-5.7-1.1-1.1-1.6 1.8-2.7-1.5-1.7-2.6 2.9-.1-5.9-2.2-3 1.9-6.2 3.8-4.8 3.6.4zm-15.9 28.7-3.5-1.2-3 .1 1.2-3.3-.9-3.2 4-.3 4.9 3.8zm103.8 329.1-.4 2.8 1.6 3.3 4.2-.5 1.4 1.2-2.5 7.5 2.7 3.8.6 5-.7 4.3-1.7 3-5-.3-3.1-3.1-.4 2.9-3.8.8-2 1.6 2.1 4.2-4.3 3.6-5.8-6.5-3.7-5.3-3.5-6.6.2-2.2 1.3-2 1.3-4.7 1.2-4.8 1.9-.3h8.2v-7.7l2.7-.4 3.4.8 3.4-.8zm43.6-417.2.4 3.8 7.3 3.7-2.9 4.2 6.5 6.3-1.7 4.8 4.9 4.2-.9 3.8 7.4 3.9-.9 2.9-3.4 3.4-8 7.4-8 .5-7.6 2.1-7.1 1.3-3.2-3.2-4.7-1.9.1-5.8-3-5.2 1.6-3.4 3.3-3.5 8.8-6.2 2.6-1.2-.9-2.4-6.5-2.6-1.8-2.2-1.8-8.5-7.2-3.7-6-2.7 2.2-1.4 5.1 2.8 5.3-.2 4.7 1.3 3.4-2.4 1.1-4 5.9-1.8 5.8 2.1zm103.2 338.4 3.9.1 5 2.6 1.5 2.2 2.6 2.1 2.5 3.7 2 2.1-1.9 2.8-1.8 3 .5 1.8.2 2 3.2.1 1.3-.5 1.3 1.2-1.2 2.2 2.2 3.6 2.2 3.1 2.2 2.3 18.7 7.6 4.8-.1-15.6 19.3-7.3.3-5 4.5-3.6.1-1.5 2.1h-3.9l-2.3-2.2-5.2 2.7-1.6 2.7-3.8-.6-1.3-.7-1.3.2-1.8-.1-7.2-5.4h-4l-1.9-2.1-.1-3.6-2.9-1.1-3.5-7-2.6-1.5-1-2.6-3-3.1-3.5-.5 1.9-3.6 3-.2.8-1.9-.2-5v-.8l1.5-6.7 2.6-1.8.5-2.6 2.3-5 3.3-3.1 2-6.4.7-5.5 6.6 1.4 1.5-4.8 3.6 2.9 3.2-1.5zm-93.6-283.9.9 1-2.6 3.4 2.4 5.6-1.6 1.9-3.8-.1-4.4-2.2-2.1-.7-3.8 1-.1-3.5-1.5.8-3.3-2.1-1-3.4 5.5-1.7 5.6-.8 5.1.9zm115.2 295.7-1.7 1.6-2.4-.6-2-2.1-2.5-3.7-2.6-2.1-1.5-2.2-5-2.6-3.9-.1-1.4-1.3-3.2 1.5-3.6-2.9-1.5 4.8-6.6-1.4-.7-2.5 2-9.5.3-4.2 1.7-2 4-1.1 2.7-3.6 3.6 7.4 1.9 5.9 3.2 3.1 8 6.1 3.3 3.6 3.2 3.8 1.8 2.2zm-56.8-118.9 3.9 9.4.7 1.6-1.3 2.6-.7 4.8-1.2 3.4-1.2 1.1-2-2.1-2.7-2.8-4.7-9.2-.5.6 2.8 6.7 3.9 6.5 4.9 10 2.3 3.5 2 3.6 5.4 7.1-1 1.1.4 4.2 6.8 5.8 1.1 1.3h-65.9l-1-23.7-1.3-22.8-2-5.2 1.1-3.9-1-2.8 1.7-3.1 7.2-.1 5.4 1.7 5.5 1.9 2.6 1 4-2 2.1-1.8 4.7-.6 3.9.8 1.8 3.2 1.1-2.1 4.4 1.5 4.3.4zM559 502.8l.8 4.9-1.7 4.1-6.1 6.8-6.7 2.5-3.4 5.6-.9 4.3-3.1 2.7-2.5-3.3-2.3-.7-2.3.5-.3-2.3 1.6-1.5-.7-2.7 2.9-4.8-1.3-2.8-2.1 3-3.5-2.9 1.1-1.8-1-5.8 2-1 1-4 2.1-4.1-.3-2.6 3.1-1.4 3.9-2.5 5.6 3.6 1.1-.1 1.4 2.8 4.8.9 1.6-1 2.8 2.1zm472-238.2-1 3.3 1 6.1-1.1 5.3-3.2 3.6.6 4.8 4.5 3.9.1 1.5 3.4 2.6 2.6 11.5 1.9 5.7.4 3-.8 5.2.4 3-.6 3.5.6 4-2.2 2.7 3.4 4.7.2 2.7 2.1 3.6 2.5-1.2 4.5 3 2.5 4-18.8 12.3-16 12.6-7.8 2.8-6.2.7-.1-4.1-2.6-1.1-3.5-1.8-1.3-3-18.7-14-18.6-14-20.5-15.6.1-1.2.1-.4.1-7.6 8.9-4.8 5.4-1 4.5-1.7 2.1-3.2 6.4-2.5.3-4.8 3.1-.6 2.5-2.3 7.1-1.1 1-2.5-1.4-1.4-1.9-6.8-.3-3.9-1.9-4.1 5.1-3.5 5.8-1.1 3.3-2.6 5.1-2 9-1.1 8.8-.5 2.7.9 4.9-2.5 5.7-.1 2.2 1.5zM585.7 386l.3-1.8-1.3-1.9 1.5-1.1.7-2.5-.1-3.4.8-1.1h4.3l3.2 1.6 1.5-.1.7 2.3 3.1-.2-.4 1.9 2.5.3 2.5 2.3-2.3 2.6-2.6-1.4-2.6.3-1.8-.3-1.1 1.2-2.2.4-.7-1.6-1.9.9-2.7 4.4-1.3-1zm447.6-234.5-2.9.9-3.7-.8-2.1-3.4-.4-6.1.6-1.7 1.3-1.8 4-.3 1.6-1.7 3.6-1.7v3.1l-1.2 2 .7 1.6 2.6.9-1 2.3-1.4-.6-3.1 4.3zm12.8-3.8-2.4 4.9-5.2-3.5-.9-2.5 6.8-2zm183.4 280.5-1.9 3.5-1.3-1.2-1.3.5-3.2-.1-.2-2-.5-1.8 1.8-3 1.9-2.8 2.4.6 1.7-1.6 1.4 2-.1 2.6-3.1 1.6zm-175.6-269.3 1.4 3.1-1.2 1.7 1.9 2.1 1.5 3.3-.2 2.2 2.4 3.9-2.2.6-1.3-.7-1.1 1.2-3.5 1.2-1.7 1.6-3.4 1.3 1 1.8.7 2.7 2.6 1.5 3 2.6-1.6 2.9-1.7.8 1 4.1-.4 1.1-1.7-1.3-2.4-.2-3.5 1.1-4.4-.3-.6 1.7-2.7-1.7-1.4.3-5.5-1.9-1 1.3h-4.2l.4-4.5 2.4-4.2-7.2-1.2-2.4-1.6.2-2.7-1-1.4.4-4.2-1.1-6.5h2.9l1.2-2.3.9-5.6-.9-2.1.8-1.3 4-.3 1 1.3 3.1-3-1.3-2.3-.4-3.4 3.7.8 2.9-.9.3 2.3 4.9 1.4.1 2.2 4.7-1.2 2.6-1.6 5.6 2.4zm5.8 16.3 2.5 2 3.7.5-.2 1.7 2.8 1.3.6-1.6 3.4.7.7 2 3.7.3 2.6 3.1h-1.5l-.7 1.1-1.1.3-.2 1.4-.9.3-.1.6-1.6.6-2.2-.1-.6 1.4-2.4-1.2-2.3.3-4-1.9-1.7.5-2.6 2.6-3.8-2.1-3-2.6-2.6-1.5-.7-2.7-1-1.8 3.4-1.3 1.7-1.6 3.5-1.2 1.1-1.2 1.3.7zM544.8 355.7l1.9 2.3 5.2-.7 1.8 1.5 4.2 4 3.2 2.9 1.8-.1 3.2 1.3-.6 1.8 4 .3 3.9 2.6-.8 1.5-3.8.8-3.8.3-3.7-.5-8.1.6 4.2-3.5-2.1-1.7-3.6-.4-1.7-1.9-.8-3.6-3.2.2-5-1.7-1.5-1.4-7.1-1-1.8-1.2 2.3-1.6-5.4-.3-4.4 3.3-2.3.1-1 1.6-2.8.7-2.3-.7 3.2-1.9 1.5-2.4 2.7-1.4 3-1.2 4.3-.6 1.4-.8 4.7.5 4.4.1zm-30.2 75.9 1.2 3.5 2 2.6 2.5 2.7-2.2.6-.1 2.6 1.1.9-.9.8.2 1.1-.6 1.3-.3 1.3-3-1.4-1.1-1.4.7-1.1-.1-1.4-1.5-1.5-2.2-1.3-1.8-.8-.3-1.9-1.4-1.1.2 1.8-1.2 1.6-1.2-1.8-1.7-.7-.7-1.2.1-2 .9-2-1.5-.9 1.4-1.3.9-.8 3.6 1.7 1.3-.8 1.8.5.8 1.3 1.7.5zm69.8-5.4-3.7 1.1-1.6 3.2-2.3 1.8-1.8 2.4-.9 4.6-1.8 3.8 2.9.4.6 2.9 1.2 1.5.3 2.5-.7 2.4.1 1.4 1.4.5 1.2 2.2 7.3-.6 3.3.8 3.8 5.6 2.3-.7 4.1.3 3.2-.7 2 1.1-1.2 3.4-1.3 2.2-.6 4.6 1.1 4.3 1.5 1.9.2 1.4-2.9 3.2 2 1.4 1.5 2.3 1.6 6.4-1.1.8-1-3.8-1.6-2.1-1.9 2.3-11-.2v4l3.3.7-.2 2.5-1.1-.7-3.2 1-.1 4.7 2.6 2.4.9 3.6-.1 2.8-2.2 17.6-2.9-3.4-1.7-.1 3.5-6.6-4.4-3-3.4.6-2.1-1.1-3.1 1.7-4.2-.9-3.5-6.7-2.6-1.6-1.8-3.1-3.8-3-1.5.6-2.4-1.5-2.8-2.1-1.6 1-4.8-.9-1.4-2.8-1.1.1-5.6-3.6-.7-2 2.1-.5-.2-3.2 1.4-2.4 2.8-.4 2.5-4 2.2-3.4-2-1.5 1.2-3.7-1.1-5.9 1.3-1.7-.7-5.4-2.2-3.5.9-3.1 1.8.5 1.1-1.9-1.1-3.8.7-.9 2.9.2 4.5-4.5 2.4-.7.1-2.1 1.4-5.5 3.4-2.9 3.5-.2.6-1.3 4.4.5 4.6-3.2 2.3-1.4 2.9-3.1 2 .4 1.3 1.7zm506.5 53.1-.3 3.9-1.7 3.4-1.1 4-.7 5.7.3 3.7-.9 2.2-.1 2.4-.7 2-3.7 3.1-2.6 3.3-2.5 6.2.1 5.3-1.4 2.1-3.3 3.1-3.4 4-2.1-1.1-.3-1.8-3.1-.1-2 2.5-1.5-.7-2.1-2.2-1.7 1.1-2.3 2.8-4.6-6.8 4.3-3.6-2.1-4.2 2-1.6 3.8-.8.4-2.9 3.1 3.1 5 .3 1.7-3 .7-4.3-.6-5-2.7-3.8 2.5-7.5-1.4-1.2-4.2.5-1.6-3.3.4-2.8 7.1.2 4.6 1.7 4.5 1.5.4-3.4 3-6 3.3-3.4 3.9 1.1zm50.4-11.1 3.5 5.3 2.6.8 1.5-1.1 2.6.4 3.1-1.3 1.4 2.7 5.1 4.3-.3 7.5 2.3.9-1.9 2.2-2.1 1.8-2.2 3.3-1.2 3-.3 5.1-1.3 2.5-.1 4.8-1.6 1.8-.2 3.8-.8.5-.6 3.6 1.4 2.9.1 1-1.2 10.3 1.5 3.6-1 2.7 1.8 4.6 3.4 3.5.7 3.5 1.6 1.7-.3 1.1-.9-.3-7.7 1.1-1.5.8-1.7 4.1 1.2 2.8-1.1 7.6-.9 6.4 1.5 1.2 3.9 2.5 1.6-1.2.2 6.9h-4.3l-2.2-3.5-2-2.8-4.3-.9-1.2-3.3-3.5 2-4.4-.9-1.9-2.9-3.5-.6-2.7.1-.3-2-1.9-.1-2.6-.4-3.5 1-2.4-.2-1.4.6.4-7.6-1.8-2.4-.4-4 .9-3.9-1.1-2.4-.1-4.1-6.8.1.5-2.3h-2.9l-.3 1.1-3.5.3-1.5 3.7-.9 1.6-3.1-.9-1.8.9-3.8.5-2.1-3.3-1.3-2.1-1.6-3.9-1.3-4.7-16.7-.1-2 .7-1.7-.1-2.3.9-.8-2 1.4-.7.2-2.8 1-1.6 2-1.4 1.5.7 2-2.5 3.1.1.3 1.8 2.1 1.1 3.4-4 3.3-3.1 1.4-2.1-.1-5.3 2.5-6.2 2.6-3.3 3.7-3.1.7-2 .1-2.4.9-2.2-.3-3.7.7-5.7 1.1-4 1.7-3.4.3-3.9.5-4.5 2.2-3.2 3-2.1 4.7 2.2 3.6 2.4 4.1.6 4.3 1.3 1.6-3.9.8-.5 2.6.6 6.3-3.2 2.2 1.4 1.8-.2.9-1.6 2.1-.5 4.2.7 3.7.1zm-68.5-14-2.8 6.5-1.4 1.1-.4 5 .6 2.7-.5 1.9 2.7 3.4.5 2.3 2.1 3.3 2.6 2.1.3 2.9.6 1.9-.4 3.4-4.5-1.5-4.6-1.7-7.1-.2-.7-.4-3.4.8-3.4-.8-2.7.4-9.3-.1.9-5.1-2.3-4.3-2.6-1-1.1-2.9-1.5-.9.1-1.8 1.4-4.6 2.7-6.2h1.6l3.4-3.8 2.1-.1 3.2 2.7 3.9-2.2.5-2.7 1.3-2.6.8-3.2 3-2.6 1.1-4.5 1.2-1.5.8-3.3 1.4-4.1 4.7-5 .3-2.1.6-1.2-2.3-2.5.2-2.1 1.5-.3 2.3 4.1.5 4.2-.2 4.3 3.2 5.8h-3.2l-1.6.4-2.6-.6-1.2 3 3.4 3.8 2.5 1.1.8 2.6 1.8 4.4zm-116.9-19 2.5 1.4 1 2.2 2.5 1.3 2-1.6 2.6-.2 3.9 1.6 1.5 9.2-2.4 5.3-1.5 7.3 2.4 5.5-.2 2.6h-2.6l-3.9-1.2H960l-6.7 1.2-3.9 1.8-5.6 2.4-1.1-.2.4-5.3.6-.8-.2-2.5-2.4-2.7-1.8-.4-1.6-1.8 1.2-2.9-.5-3.1.2-1.8h.9l.4-2.8-.4-1.3.5-.9 2.1-.7-1.4-5.2-1.3-2.6.5-2.2 1.1-.5.8-.6 1.5 1h4.4l1-1.8 1 .1 1.6-.7.9 2.7 1.3-.8zm669.7-249.7 9 4.5 6 5.8h7.6l2.6-2.4 6.9-1.9 1.3 5.7-.3 2.3 2.8 6.8.6 6.2-6.9-1.1-2.9 2.2 4.7 5.4 3.9 7.5-2.5.1 1.9 3.3-5.5-3.8v3.6l-6.4 2.7 2.8 3.4-4.6-.3-3.6-2-1.1 4.6-3.9 3.4-2.1 4.1-6.3 1.8-2.4 3-4.8 1.8 1.3-3-2.3-2.5 2-4.3-4.5-3.3-3.4 2.2-3.6 4.5-1.3 4.1-5 .3-1.3 3 4.8 4.3 4.8 1.1 1.4 2.8 5.1 1.9 3.8-4.6 5.9 2.5 3.5.2 2.3 3.3-6.7 1.8-1 3.5-3.8 3.2-.9 4.5 7.1 3.5 4.6 6.3 5.5 5.9 5.5 4.9 1.6 4.8-2.8 1.8 2.4 3.4 3.9 2 .8 5.2.1 5.1-2.8.6-2.1 6.9-2.3 8.5-3.4 7.6-6.4 5.9-6.6 5.5-6.1.7-2.9 2.8-2.3-2-2.5 3.1-7.2 3.3-5.8.9-.7 6.8-3.1.4-2.2-4.7.9-2.4-7.8-2.1-2.4 1.1-5.9-1.7-3.1-2.6.3-3.7-5.3-1.2-3.1-2.4-4.1 3.4-5.3.8-4.4-.1-2.7 1.6-2.7.9 2 7.4-3-.2-.8-1.5-.5-2.7-3.8 1.9-2.6-1.2-4.5-2.4.8-5.3-3.7-1.3-2.4-5.9-5.6 1.1-.7-7.6 4.2-5.4-.9-5.3-1.3-4.9-2.7-1.5-2.7-3.8-3.1.5-6.1-1 1.2-2.7-3.6-4-3.2 2.7-4.9-1.5-5.4 4-3.9 4.8-4.2.8-2.8-1.7-2.9-.2-4.3-1.4-2.6 1.6-2.6 4.8-1.5-5.1-3.1 1.4-6.5-.7-6.5-1.4-5-2.9-4.5-1.2-2.5-3.1-3.3-.9-6.4-4.2-4.8-2-1.9 1.5-8.6-4.5-6.2-4-3.2-7.1 4.1.9-.6-3.3-3-3.3-.8-5.2-7.7-7.6-9.5-2.5-2.9-5-4.7-3-1.5-1.8-1.8-3.6-.5-2.5-3.7-1.5-1.5.7-3.1-6 1.1-1.4-1.2-1.5 4.1-3 3.2-1.3 5.8.9.6-4.1 6.4-.7 1-2.6 6.9-3.4.2-1.4-1.7-3.7 2.9-1.6-8.8-11 9.1-2.5 2-1.4-1-11.3 10.8 2.1 1.6-2.9-2.5-6.2 3.8-.6 1.9-4.2 1.7-.5 3.3 4.4 5.7 3.3 8.2 2.3 5.8 5.1 1.4 7.3 3 2.8 6.5 1.1 7.2.8 8 4 3.4.7 5 5.8 4.7 3.8 5.6-.2 11.3 1.5 6.4-.9 5.6.9 9.4 3.9h6.2l3.3 1.9 4.4-3.4 7.2-2.2 7.6-.2 4.9-2.2 2-3.4 2.4-2.2-1.9-2.1-2.9-2.4.5-4.1 3.2.6 5.9 1.3 3.2-3.4 6.4-2.4 1.3-4.2 2.5-1.8 6.8-.8 4.4.7-.8-2.2-7.2-4.4-5.2-2-2.5 2.3-5.5-1-2.3.8-2.8-2.5-.3-6.3-.6-4.7 7.4 2.4 4.4-3.9-1.9-2.8-.2-6.5 1.3-2-2.5-3.4-3.7-1.4 1.7-3.1 5.1-1.1 6.2-.2 8.6 1.9 6 2.2 7.7 6.2 3.8 2.7 4.5 3.8 6.2 6zm-23.4 196.4-4.3 3.1-4.9-2-1-5.5 2.2-2.9 5.8-1.8 3.3.1 1.6 2.5-2 2.8zm-567.8-184.4.2 1.1-.7 1.5 2.3 1.2 2.6.2-.3 2.5-2.1 1.1-3.8-.8-1 2.5-2.4.2-.9-1-2.7 2.2-2.5.3-2.2-1.4-1.8-2.7-2.4 1v-2.9l3.6-3.5-.2-1.6 2.3.6 1.3-1.1h4.2l1-1.3zM757.2 2.9l8.7.3 6.7.5 5.2 1-1.1 1-9.8 1.7-9 .8-4 .9h7.5l-10.5 2.5-6.8 1.2-9.3 3.5-8.1.7-3.1 1-11.3.4 4.4.6-3.3.8.7 2.3-5 1.6-6.9 1.3-3.5 1.8-6.6 1.5-.5 1.1 6.5-.2-1.1 1.2-12.7 2.9-8.5-1.4-11.7.8-5-.6-6.8-.3 2.1-2.3 8-1.1 2-3.4 2.6-.3 7.5 2-1.7-3-4.9-.9 5-1.8 7.6-1.1 2.8-1.6-3-1.7 1.1-2.2 9.4.1 2.2.5 7.3-1.6-7.3-.5-12.6.3-4.4-1.4-.8-1.7-2.5-1.2 1.1-1.3 6-.8 4.2-.1 7.4-.6 6.8-1.5 3.9.2 2.4 1.1 5-2 5.2-.6 6.5-.4 10.4-.2 1.3.4 10.3-.6 7 .2zm-79.2 14 2.7 1.5-6.5 1.3-10.6 3.5-6.8.3-6.8-.6-1.6-1.9 2.1-1.6 4.3-1.2h-6.6l-2-1.5.4-1.9 4.9-1.9 4.1-1.3 4-.3-.3-1 8.3-.2 1.6 2.2 4.7.9 4.8.9zM623.9 23l-1.1 1.9-5.3-.5-4-1.5-7.8-.2 5.3-1.3-2.8-1.1 2.2-1.8 6.1.6 7.5 1.7zm13.8 1.2-6.6 1-1.6-1.1.6-1.7 2.2-1.9 4.4.2 1.7.3 2.3 1.6zm-46.8-2.5-5.7.9h-6l1-.7 5.7-1.3 1.7.2zm-7.8 4.2-8.8 1.4-3.3-1.5 5.1-1.5 6-.5 4.1.7zm58.8.9-1.8.1-6.6-.3.7-1.3 7.2.1 1.6.8zm-81.2-.6-5.8 3.7-5.3 1.7-3.8.2-9.9 2.1-7.1.8-3.6-1.1 11.7-3.7 12.2-3.1 5.5.1zm75.7 2.6 2.3 1.6h7.4l1.4 1.6-2.8 1.8 3.1 1.1 1.2 1.2 4.9.2 5.1.4 7.1-1 8.1-.5 5.8.4 2.3 1.9-1 2-3.6 1.4L671 42l-4.3-.7-11.8.8-8 .1-5.6-.6-8.6-1.6 1.6-2.8 2.1-2.4-1.4-2.2-7-.6-2.6-1.5 3.8-2zm-55.7 4.4-.7 1.7 4.4-.8 3.6.2-2.3 2.5-5.1 2.3-13.9.8-12.3 2.2-6 .1 1.5-1.6 10.7-2.3-17.9.6-4.2-.9 11.7-4.8 5.4-1.4 8.3 1.7 2.9 2.9 6.1.4.7-4.7 5.8-1.8 3.1.5zm39.4-2.6.2 2.3-2.8 2.5-5.8 3.8-6.9.5-3.2-.8L605 36l-6.6.3 4.3-3.8 3.8.2 7.7-1.7 4.9.3zm8.8 8.7-4.1 1.9-5.2-.4-3.2-1.3 4.5-2.2 6.9-1.4 1.4 1.8zM503.7 57.7l-13.5 2.6.6-2.3-6-2.8 4.4-2.2 7.5-3.8 7.6-3.4.4-3.1 14-.8 4.2 1.1 9.5.3 1.9 1.4 1.6 2.2-6.5 1.3-13.9 3.6-9.2 3.7zm115.8-7.2-7.8 3.9-4.4-.2 1.8-4.6 2.6-2.5 4.2-2.2 5.2-1.4 7.9.2 6.2 1.2-10.1 4.6zM596.9 45l3.6 1.1 7.6-.7-.5 1.5-6.1 2.5 3.8 2.2-5.2 4.7-8.4 2-3.4-.4-.9-2-5.9-4 1.7-1.7 7.4.6-.9-3.3zm50.4 3.5.3 3.2 7.2-4.1 11.7-2.1 2.3 5.3-3.2 3.4 9-1.5 5.3-2.1 6.8 2.6 3.7 2.5-1.1 2.3 8.2-1.2 1.9 3.4 8.4 2.1 2.2 2.1.9 5.1-9.1 2.5 7.7 3.6 5.9 1.2 3.3 5 6.5.4-3.3 3.9-10.9 6.5-4-2.4-3.8-5.4-5.9.7-2.3 3.3 2.7 3.2 4.5 2.6 1 1.5-.1 5.7-3.6 4.1-4.7-1.6-8.6-4.5 3.6 4.9 2.8 3.5-.3 2-10.9-2.3-7.6-3.4-3.8-2.7 2.4-1.7-4.8-2.9-4.7-2.7-.9 1.6-13.1.9-2.4-1.9 5.4-4.2 8.1-.1 9.3-.7-.2-2 3.1-2.8 8.8-5.4.4-2.5-.5-1.8-4.7-2.7-7.1-1.8 3.5-1.4-2-3.4-3.4-.3-1.9-1.8-3.3 1.6-7.9.7-14-1.2-7.4-1.6-5.9-.8-1.9-1.9 6.3-2.4h-5.7l3.3-5.3 7.1-4.6 6-2.1 11.2-1.4zm39.8.3-.7 1.4-4.1-.1-4.1-.1-4.9.7-.9-.4-2.1-2.7 1.7-1.8 2.2-.4 8.4.6zm-108.6-1.6-7 3.4-2.3-3.6 2.1-.8 5.5-.2zM539 48.7l-4.7 2.4 10.5-1.5 2.6 2.6 7.3-2.7 1.8 1.7-2.2 5.1 4.3-2.1 2.8-5.3 4.3-.8 3 .8 2.2 2.1-2.7 5.1-2.4 3.7 4.2 2.6 5 2.6-2.6 2.3-7.1.5.8 2-3.2 2-6.7-.8-5.7-1.5-5.1.3-9.5 1.9-11.3.8-7.9.5.3-2.6-4.1-1.4-4.3.6-.6-4.3 3.3-.6 7.3-.9 5.5.3 6.2-1-6.5-1.2-9.1.4-5.7-.1v-1.9l11.7-2.2-6.3.1-5.4-1.4 7.8-3.9 5.2-2.1 14.2-3.1zm106.5 163.8-2.2-3.6 2.9-8.5-1.6-1.8-3.7 1-1.1-1.6-5.5 4.7-3.2 4.9-2.8 2.9-2.5 1-1.7.3-1.1 1.5h-9.3l-7.8.1-2.7 1.1-6.8 4.4v-.1l-.9-.4-2 .9-1.9 1.3-1.8-1.1-4.7.8-3.9.9-1.9.8-2.3 2.1 1.8.7 1.7-.4h.3l-.3 1.9-4.8.7-2.8.8-1.7 1-2.6-.6-1.6.3-2.9 1.8-4.6 2-2.7-.4 2-2.2 3.7-3.5 4.1-2.1 1.1-1.8.9-3 3.8-3.5.9-4 1.1 3.9 3.8.9 2.4-2.1-1.4-4.8-.9-2-4-1.2-3.8-.7h-3.9l-3.4-.8-.4-1.4-1.4.9-1.2-.2 1.9-2.1-1.8-.8 1.9-2.4-1.2-1.8 1.7-1.8-5.2-.9-.1-3.6-.8-.8-3.3-.2-4.1-1.2-1.5.8-1.8 1.5-3.3 1-3.1 2.5-5.4-1.7-4.4.8-3.9-1.9-4.6-1-3.3-.4-1-1 .9-3.4h-1.7l-1.3 2.4H377l-5.4-6.1-1.6-2.7-7-2.6 1.3-5.5 3.6-3.7-4.1-2.7 3.1-4.9-2.1-4.4 2.5-3.2 5.1-2.9 3.2-3.8-4.6-3.8 1.4-6.9 1.1-4.2-1.6-2.7-.8-2.4.6-3.1-6.5 1.9-7.6 3.3-.3-3.8-.5-2.6-2.8-1.6-4.2-.2L385.4 87 410 66.6l6 1.3 3.3 2.6 3.7.5 6.3-2.2 7-1.7 5.3.6 8.9-2.3 8.2-1.3.2 2.2 4.5-1.3 3.9-2.5 2.1.6 1.4 4.8 9.5-3.7-3.9 4.1 6-.9 3.2-1.5 4.6.3 3.9 2.2 7.5 2 4.7.9 4.4-.3 2.9 2.8-8.5 2.7 6.4 1.1 11.9-.6 4.4-1 1.4 3.3 7.1-2.7-2.1-2.4 4.5-1.8 5.2-.3 3.9-.5 2.1 1.3 1.5 2.9 5-.4 5.3 2.5 7.2-.9 6 .1 2.4-3.4 4.5-.9 4.9 1.8-4.3 5.2 6.2-4.4 3.2.2 6.4-5.5-1.6-3.3-2.9-2.2 5.5-5.9 8.2-3.8 4.5.9 2 2.3.4 6-5.8 2.6 6.7 1.1-4.4 5.5 8.9-4.2 2.2 3.5-4.3 4 1.3 3.7 7.3-3.9 6.5-4.8 4.7-5.9 5.5.4 5.4.8 3.6 2.7-1.7 2.7-5.1 2.9.9 2.9-2.4 2.7-10.9 3.9-6.5.9-3.2-1.7-3.3 2.8-7.4 4.7-3 2.5-7.7 3.8-6.5.4-5.1 2.4-2.9 3.8-5.7.7-8.7 4.7-9.4 6.5-5 4.6-4.9 6.9 6 1-1.5 5.5-.8 4.6 7.3-1.2 7 2.6 3.3 2.3 1.7 2.8 4.9 1.7 3.6 2.5 7.6.4 4.8.6-3.6 5.2-1.7 6.1.1 6.9 4.4 5.9 4.7-2 5.6-6.4 2.3-9.6-1.7-3.2 9-2.9 7.5-4.2 4.8-4.2 1.7-4-.4-5.1-3.2-4.5 8.9-6.2 1-5.3 3.9-9 3.8-1.4 6.7 1.6 4.2.6 4.5-1.6 3.1 2 3.6 3.4.2 2.2 7.7.5-2.6 4.9-2.3 7.4 3.8 1 1.6 3.5 8.2-3.3 7.5-6.6 4.2-2.7 1.1 5.3 2.6 7.5 2 7.2-3.4 3.8 4.8 3.4 2.9 3.4 6.9 1.6 2.4 1.9v5.2l3.4.8 1.1 2.3-2 6.9-4.3 2.3-4.2 2.2-8.8 2.2-7.9 5-8.6 1.1-10.1-1.4h-7.3l-5.3.4-5.7 4.5-7.4 2.8-10.1 8.2-7.9 5.8 4.7-1 10.9-8.3 12.3-5.2 7.6-.6 3.3 3.1-6.1 4.2-.6 6.7.1 4.8 5.6 3.1 8.6-.9 7.2-7.1-1 4.6 2.5 2.3-7.4 4.1-12.4 3.8-5.8 2.5-7.2 4.6-3.7-.5 1.5-5.3 10.4-5.3-8.1.2zm-53-142.6-4.1 1.9-4.2-1.6-3.9.5-3.4-2.4 5-1.7 4.9-2.3 3 1.5 1.6 1 .4 1zM667 80.6l-4.9.3.7-2.7 3.8-3.1 4.3-.7 2.3 1.5-1.5 2.3-.9.8zm-44.9 8.3-.9 2.5 2.7-.9 1.5 1.5 3.5 2 3.8 1.7-1.4 2.7 3.5-.4 1.9 1.9-5 1.8-5.9-1.4-.8-2.6-6.3 3.1-8.2 2.9.7-3.3-6.3.5 5.7-2.8 3.6-4.5 5.1-5.1zm3.1 16.8-7.2 3.2-3-.2v-1.5l5-2.7 6 .1zm9.7 3.2-3.6 3-1.7-.5-.1-1.7.4-.4 2.8-1.7 1.7.1zm-283.4 47.5 1.5.8 5-.5-7.2 6.9.3 5h-1.9l-.7-2.8.5-2.9-.8-1.9 1.3-2.7zm360 21.4-5 5.4 3.9-2.1 2.9 1.4-2.4 2.1 3.8 1.7 2.8-1.5 4.3 1.9-2.8 4.6 3.8-1.1-.3 3.3.5 3.9-3.6 5.6-2.4.2-2.9-1.2 2.5-5.1-1.2-.8-7.3 5.4-3-.2 4.4-3-4.4-1.5-5.5.4-9.6-.2-.2-1.8 3.8-2.3-1.7-1.6 5.4-3.8 8.2-9.9 4.2-3.5 5-2.1 2.1.2-1.5 1.7zm-339.1 13.5-3.1.9-6.3-2.8v-2.2l-2.9-2.2.3-1.8-4.3-1.1.6-3.4 1.5-1.4 4.1 1.3 2.4 1 4.1.6.2 2.2.4 2.9 3.2 2.6zm307.9-3.7-2.4.1-5.8-1.9-3.5-3 1.9-.5 5.9 1.6 4.2 2.6zm-14.4 16 3.4.9 4.7-.2-3.3 2.6-2 .4-5.5-2.7-.6-2.1 2.5-1.9zm455.4 242.9 3.9 2.5 3.1 2.6.1 2.1 3.9 3.3 2.4 2.8 1.4 3.8 4.3 2.6.9 2-1.8.7-3.7-.1-4.2-.7-2.1.5-.9 1.6-1.8.2-2.2-1.4-6.3 3.2-2.6-.6-.8.5-1.6 3.9-4.3-1.3-4.1-.6-3.6-2.4-4.7-2.2-3 2.1-2.2 3.2-.5 4.5-3.6-.3-3.9-1.1-3.3 3.4-3 6-.6-1.9-.3-2.9-2.6-2.1-2.1-3.3-.5-2.3-2.7-3.4.5-1.9-.6-2.7.4-5 1.4-1.1 2.8-6.5 4.6-.5 1-1.7 1 .2 1.4 1.4 7.1-2.4 2.4-2.5 2.9-2.3-.6-2.2 1.6-.6 5.5.4 5.2-3 4-7 2.8-2.6 3.6-1.1.7 2.7 3.3 4v2.7l-.8 2.6.4 2 1.9 1.9zm6.3 169.2 1.9 5.1 1.1 1.2 1.6 3.7 6.1 7 2.3.7-.1 2.3 1.5 4.1 4.3 1 3.4 2.9-8.1 4.7-5.2 4.8-2 4.3-1.8 2.4-3 .5-1.2 3.1-.6 2-3.6 1.4-4.5-.3-2.5-1.8-2.3-.7-2.8 1.4-1.5 3.1-2.7 1.9-2.8 2.9-4 .7-1.1-2.3.6-3.9-3-6.1-1.4-1 .6-18.7 5.5-.2.8-22.9 4.2-.2 8.7-2.3 2 2.7 3.7-2.5h1.7l3.2-1.5zm361.2-292.2 2.6 2.1.5 3.9-4.5.2-4.7-.4-3.2 1-5.5-2.5-.4-1.2 2.6-4.8 2.6-1.6 4.3 1.4 2.9.2zm144.3 149.3 2.2-2.4 4.6-3.6-.1 3.2-.1 4.1-2.7-.2-1.1 2.2zm-967.3 16.8 3.1.6.6-1.4-1-1.2.6-1.9 2.3.6 2.7-.7 3.2 1.4 2.5 1.3 1.7-1.7 1.3.2.8 1.8 2.7-.4 2.2-2.5 1.8-4.7 3.4-5.9 2-.3 1.3 3.6 3 11.2 3.1 1.1.1 4.4-4.3 5.3 1.7 1.9 10.1 1 .2 6.5 4.3-4.2 7.1 2.3 9.5 3.9 2.8 3.7-.9 3.6 6.6-2 11 3.4 8.5-.2 8.4 5.3 7.4 7.2 4.4 1.8 4.8.3 2.1 2 2 8.2 1.1 3.9-2.1 10.6-2.7 4.2-7.7 8.9-3.4 7.3-4 5.5-1.4.2-1.3 4.7.9 12-1.1 9.9-.3 4.2-1.6 2.6-.5 8.6-5.2 8.3-.5 6.7-4.3 2.7-1.1 3.9h-6l-8.5 2.4-3.7 2.9-6 1.9-6.1 5.1-4.1 6.4-.3 4.8 1.3 3.5-.3 6.5-.8 3.1-3.4 3.6-4.5 11.3-4 5-3.2 3.1-1.5 6.1-2.9 3.6-2.1-3.6 1.8-3.1-3.8-4.3-4.8-3.6-6.3-4.1-1.9.2-6.3-5-3.4.7 6-8.7 5.3-6.3 3.3-2.6 4.2-3.5-.4-5.1-3.2-3.8-2.6 1.3.7-3.7.3-3.8-.3-3.6-2.1-1.1-2 1-2.1-.3-.8-2.4-1.1-5.9-1.2-1.9-3.9-1.8-2.2 1.3-5.9-1.3-.4-8.7-2-3.5 1.6-1.4-.8-3.6 1.3-2.8.6-5.1-1.7-4-3.2-1.8-.8-2.5.5-3.7-10.7-.3-2.8-7.5 1.7-.1-.3-2.7-1.2-1.9-.5-3.7-3.4-1.9h-3.5l-2.5-1.8-3.9-1.3-2.3-2.4-6.4-1.1-6.5-5.7.3-4.3-.9-2.5.4-4.8-7.3 1.1-2.9 2.4-4.8 2.6-1.1 1.9-2.9.2-4.2-.6-3.2 1.1-2.6-.7-.1-9.7-4.4 3.7-5-.1-2.3-3.5-3.8-.3 1-2.8-3.3-3.9-2.6-5.8 1.5-1.1-.2-2.8 3.4-1.8-.7-3.5 1.4-2.2.3-3 6.3-4.4 4.6-1.2.8-1 5.1.3 2.2-17.6.1-2.8-.9-3.6-2.6-2.4.1-4.7 3.2-1 1.1.7.2-2.5-3.3-.7v-4l11 .2 1.9-2.3 1.6 2.1 1 3.8 1.1-.8 3.1 3.4 4.4-.4 1.1-2 4.2-1.5 2.4-1.1.7-2.7 4.1-1.8-.3-1.4-4.8-.5-.7-4.1.3-4.3-2.5-1.6 1.1-.6 4.1.8 4.5 1.6 1.7-1.5 4.1-1 6.4-2.4 2.1-2.5-.7-1.8 3-.2 1.2 1.4-.8 2.9 2 .9 1.2 3-1.6 2.3-1 5.4 1.4 3.3.3 3 3.5 3 2.8.3.6-1.3 1.8-.3 2.6-1.1 1.8-1.7 3.2.6zm-3.3 141.8-.3-2-5.4-3.3-5.2-.1-9.6 1.9-2.1 5.6.2 3.5-1.5 7.7-1-1.4-6.4-.3-1.6 5.2-3.7-4.6-7.5-1.6-4 5.8-3.9.9-3.1-8.9-3.7-7.2 1.1-6.2-3.2-2.7-1.2-4.6-3.2-4.4 2.9-6.9-2.9-5.4 1.1-2.2-1.2-2.4 1.9-3.2-.3-5.4v-4.6l1.1-2.1-5.5-10.4 4.2.6 2.9-.2 1.1-1.9 4.8-2.6 2.9-2.4 7.3-1.1-.4 4.8.9 2.5-.3 4.3 6.5 5.7 6.4 1.1 2.3 2.4 3.9 1.3 2.5 1.8h3.5l3.4 1.9.5 3.7 1.2 1.9.3 2.7-1.7.1 2.8 7.5 10.7.3-.5 3.7.8 2.5 3.2 1.8 1.7 4-.6 5.1-1.3 2.8.8 3.6zM487.8 399.8h-1.7l1.3-7.2.7-5.1.1-1 .7-.3.9.8 2.5-3.9 1.1-.1-.1 1h1l-.3 1.8-1.3 2.7.4 1-.9 2.3.3.6-1 3.3-1.3 1.7-1.1.2zm653.8-237.1-3.9-.2-.8.6 1.5 2 2 4-4.1.3-1.3 1.4.3 3.1-2.1-.6-4.3.3-1.5-1.5-1.7 1.1-1.9-.9-3.9-.1-5.7-1.5-4.9-.5-3.8.2-2.4 1.6-2.3.3-.5-2.8-1.9-2.8 2.8-1.3-.4-2.4-1.7-2.3-.6-2.7h4.7l4.8-2.3.5-3.4 3.6-2-1-2.7 2.7-1 4.6-2.3 5.3 1.5.9 1.5 2.4-.7 4.8 1.4 1.1 2.9-.7 1.6 3.8 4 2.1 1.1v1.1l3.4 1.1 1.7 1.6zm-58.6 51.6 1.9-.1-1.1 2.8 2.7 2.5-.5 2.9-1.1.3-.9.6-1.6 1.5-.4 3.5-4.8-2.4-2.1-2.7-2.1-1.4-2.5-2.4-1.3-1.9-2.7-3 .8-2.6 2 1.5 1-1.4 2.3-.1 4.5 1.1 3.5-.1zm49.6 7.3-2.3 2.6-1.3 4.5 2.1 3.6-4.6-.8-5 2 .3 3.2-4.6.6-3.9-2.3-4 1.8-3.8-.2-.8-4.2-2.8-2.1.7-.8-.6-.8.6-2 1.8-2-2.8-2.7-.7-2.4 1.1-1.4 1.8 2.6 1.9-.4 4 .9 7.6.4 2.3-1.6 5.9-1.5 4 2.3zm368 138.7.6 4.6-2.1-1 1.1 5.2-2.1-3.3-.8-3.3-1.5-3.1-2.8-3.7-5.2-.3.9 2.7-1.2 3.5-2.6-1.3-.6 1.2-1.7-.7-2.2-.6-1.6-5.3-2.6-4.8.3-3.9-3.7-1.7.9-2.3 3-2.4-4.6-3.4 1.2-4.4 4.9 2.8 2.7.3 1.2 4.5 5.4.9 5.1-.1 3.4 1.1-1.6 5.4-2.4.4-1.2 3.6 3.6 3.4.3-4.2h1.5zM988.5 406l-.5 3.1.8 2.9 3.1 4.2.2 3.1 6.5 1.5-.1 4.4-1.2 1.9-2.8.6-1.1 2.8-2 .7-4.9-.1-2.6-.5-1.8 1-2.5-.5-9.8.3-.2 3.7.8 4.8-3.9-1.6-2.6.2-2 1.6-2.5-1.3-1-2.2-2.5-1.4-.4-3.7 1.6-2.7-.2-2.2 4.5-5.3.9-4.4 1.5-1.6 2.7.9 2.4-1.3.8-1.7 4.3-2.8 1.1-2 5.3-2.7 3.1-.9 1.4 1.2zm18.2 21-.2 2.1 1.3 3.8-1.1 2.6.6 1.7-2.8 4-1.7 2-1.1 4 .2 4.1-.3 10.3-4.7.8-1.4-4.4.3-14.8-1.2-1.3-.2-3.2-2-2.2-1.7-1.9.7-3.4 2-.7 1.1-2.8 2.8-.6 1.2-1.9 1.9-1.9h2zm9.8-249.9-.4 4.2-1.3.2-.4 3.5-4.4-2.9-2.5.5-3.5-2.9-2.4-2.5-2.2-.1-.8-2.2 3.9-1.2 3.6.5 4.5-1.3 3.1 2.7zm138.4 353.3-.6.1v-.3l-2-6.1-.01-.06-.09-1.04-1.4-2.9 3.5.5 1.7-3.7 3.1.4.3 2.5 1.2 1.5v2.1l-1.4 1.3-2.3 3.4zm80.4-294.2 2.5-2.6 3.5 3.3 3.6 4.6 2.5.3 1.9 1.7-4.2.5.1 5-.4 2.2-1.7 1.5.8 3.1-1.3.4-3.9-3.4 1.2-3.1-1.9-1.9-1.9.5-5.3 4.7-.9-4.5-2.5-1-2.6-1.7 1.1-2.1-3.2-2.2.7-1.6-2.2-1.1-1.4-1.6 1.1-1.1 4.2 1.9 2.9.3.6-.7-3.3-3.5 1.2-.8 1.5.2 4.3 3.8 2.4.5zm-6.3 17-3.8-.9-3.2-2.9-1.2-2.5 1-.1 1.9 1.7h2.3l.2 1zm-158.4-62.4-.3.8.7 2.1-.2 2.6h-2.8l1.1 1.4-1.3 4-.9 1.1-4.4.1-2.4 1.5-4.2-.5-7.3-1.7-1.3-2.1-4.9 1.1-.5 1.2-3.1-.9-2.6-.2-2.3-1.2.7-1.5-.2-1.1 1.4-.3 2.7 1.7.6-1.7 4.4.3 3.5-1.1 2.4.2 1.7 1.3.4-1.1-1-4.1 1.7-.8 1.6-2.9 3.8 2.1 2.6-2.6 1.7-.5 4 1.9 2.3-.3zm722.9 399.4 1.2 5 4-2.4 1.4 2.7 2.3 2.5-1.1 2.9.2 5.5.2 3.2 1.3.8.4 5.5-1.2 3.3.8 4.3 5.4 3.4 3.2 3 3.2 2.8-1.1 1.6 2.3 4 .5 7 2.6-1.4 1.5 2.7 1.6-.9-.7 6.8 2.9 3.9 1.9 2.4 2.8 5.2v5.2l-1 3.7-1.8 3.9.7 5.5-2.5 5.7-2.1 3-3.8 5.7-1.5 3.7-3.1 4.6-5 5.8-5.5 3.2-4.4 4.9-3.3 3.2-4.4 5.5-3.7 3.2-3.9 4.8-3.1 4.4-.8 2.1-4.3 2.2-6.1.2-6.3 2.7-3.8 2.4-4.8 2.8-2.7-2.9-2.6-1.1 2.6-3.3-3.5 1.2-7.2 4.6-3.6-1.7-2.4-1-2.8-.5-4.1-1.8-1.3-4 1.5-4.8.4-3.3-1.4-2.6-4.7-.7 3.2-3.2.9-4.7-4.7 4.4-5.3 1.2 4.5-3.5 2.5-3.7 3.5-3.2 1.6-4.7-6.8 5.4-4.3 2.2-4.3 5.1-3-2.6 1.7-3.4-1.4-4.7-1.8-2.4 1.6-1.5-5.3-3.9-3.8-.1-4-3.2-9.9.6-7.9 2.3-6.9 2.2-5-.4-7 3.3-5.3 1.4-2.3 3.4-3 2.6-4.7.2-3.6.5-4.2-1.1-4.2.7-3.8.3-4.5 3.4-1.5-.3-3.4 1.8-3.4 2-3.8-.2h-3.5l-4.1-4.1-2.4-1.2 1.5-3.7 2.9-.9 1.5-1.4.6-2.3 2.3-4.5.7-3.8-.7-6.5.2-3.7 1.4-3.6-.9-4.2.3-1.9-1.7-2.6.7-5-1.9-5.1-.1-2.7 1.8 2.8-.5-6 2.3 1.9 1.1 2.5.6-3.3-1.6-5.1-.1-2-.8-1.9 1.3-3.7 1.5-1.6 1.3-3.2.1-3.8 3.1-4.6-.4 4.9 3.1-4.4 4.9-2.2 3.2-2.7 4.7-2.4 2.6-.5 1.4.8 4.8-2.4 3.5-.7 1.1-1.4 1.5-.6 3.1.2 6.2-1.9 3.5-2.9 2-3.4 3.9-3.2.7-2.6.7-3.5 4.9-5.5 1.4 5.6 2.6-1.3-1.5-3 2.3-3.1 2.2 1.4 1.5-4.9 3.5-3.2 1.8-2.5 2.9-1.1.4-1.8 2.3.7.4-1.6 2.6-.9 2.8-.9 3.7 3 2.6 3.8h3.5l3.5.6-.7-3.5 3.5-5.1 2.7-1.7-.6-1.6 2.9-3.7 3.7-2.3 2.7.8 4.9-1.2.3-3.3-3.9-2.1 3.1-.9 3.6 1.6 2.7 2.6 4.5 1.6 1.7-.6 3.3 2 3.5-1.9 2 .6 1.5-1.3 2.2 3.2-2 3.5-2.5 2.6-1.9.2.3 2.5-2.2 3.2-2.5 3.2.2 1.8 3.8 3.6 4 2 2.5 2.2 3.3 3.8h1.6l2.6 1.7.5 2 4.9 2.1 4.1-2.2 1.8-3.4 1.7-2.9 1.3-3.5 2.6-5.1-.2-3.1.7-1.9-.1-3.6 1.4-4.9 1.3-1.3-.6-2.1 1.8-3.4 1.5-3.5.4-1.9 2.3-2.4 1.3 3.2-.1 4 1.3.8-.1 2.7 1.6 3.2-.1 3.7zM1743 763.6l3.7 2.2 3.3-.9 4.9-1.2 2.8.4-4.5 7.6-3.3 2.1-4 5.2-.6-1.8-6.6 4.4-.8-.3-3-.2.5-5.4 2-4.2.6-5.6 2-2.9zM1230.8 253l-1.8.2-2.8-3.7-.2-1h-2.3l-1.9-1.7-1 .1-2.4-1.8-4.2-1.6-.1-3.1-1.3-2.2 7-1 1.4 1.6 2.2 1.1-.7 1.6 3.2 2.2-1.1 2.1 2.6 1.7 2.5 1zM638.6 644.7l11.3 10.4 4.6 1 7.3 4.8 5.9 2.5 1.1 2.8-4.2 9.8 5.8 1.7 6.3 1 4.2-1 4.3-5 .3-5.6 2.6-1.3 3.2 3.8.4 5.1-4.2 3.5-3.3 2.6-5.3 6.3-6 8.7-.5 5.2-.4 6.6 1.2 6.4-.9 1.4.4 4.1.3 3.4 7.8 5.5.2 4.4 3.9 2.8.3 3.1-3.3 8.2-7 3.5-10.2 1.3-6-.7 2.1 3.9.1 4.7 1.8 3.2-2.5 2.3-5.1.9-5.6-2.4-1.5 1.7 2.5 6.3 4 1.9 2.3-2 2.5 3.3-4.2 2-2.9 4 1.2 6.3-.1 3.4h-4.8l-3 3.2.1 4.8 6.5 4.6 5.2 1.2.2 5.7-4.6 3.5-.6 7.3-3.5 2.4-.9 2.9 4.2 6.5 4.6 3.5-2.1-.3-4.9-1-12.1-.8-3.5-3.6-1.9-4.6-3.1.4-2.6-2.3-3.1-6.5 2.7-2.8.1-3.9-1.8-3.2.7-5.4-1.1-8.3-1.8-3.7 1.8-1.2-1.4-2.4-2.8-1.2.8-2.7-3.1-2.4-3.7-7.3 1.7-1.3-3.3-7.8-.8-6.5-.2-5.7 2.5-2.3-3.3-6.3-1.6-5.8 3-4.2-1.4-5.4 1.6-6.2-1.4-5.9-1.6-1.2-4.9-11.1 2.1-6.6-1.7-6.2.9-5.9 2.6-6 3.3-4-2-2.5.8-2.1-1.6-10.7 5.6-3.1 1.2-6.7-.9-1.6 4-5.8 7.5 1.6 3.7 4.6 1.6-5.2 6.4.3zm30.5 207-3-.2h-5l-6-13.6 3.1 2.8 4.3 4.6 7.8 3.7 7.3 1.5-.8 3-4.4.3zm627.1-515 1.3 5.1h-2.8v4.2l1.1.9-2.4 1.3.2 2.6-1.3 2.6v2.6l-1 1.4-16.9-3.2-2.7-6.6-.3-1.4.9-.4.4 1.8 4.2-1 4.6.2 3.4.2 3.3-4.4 3.7-4.1 3-4zM1088 228l.4 1.2 1.4-.6 1.2 1.7 1.3.7.6 2.3-.5 2.2 1 2.7 2.3 1.5.1 1.7-1.7.9-.1 2.1-2.2 3.1-.9-.4-.2-1.4-3.1-2.2-.7-3 .1-4.4.5-1.9-.9-1-.5-2.1zm-32.7 311-1.5-4.8 2.3-2.8 1.7-1.1 2.1 2.2-2 1.4-1 1.6-.2 2.8zm65.9 33 .6 2-.7 3.1.9 3-.9 2.4.4 2.2-11.7-.1-.8 20.5 3.6 5.2 3.6 4-10.4 2.6-13.5-.9-3.8-3-22.7.2-.8.5-3.3-2.9-3.6-.2-3.4 1.1-2.7 1.2-.5-4 .9-5.7 2-5.9.3-2.7 1.9-5.8 1.4-2.6 3.3-4.2 1.9-2.9.6-4.7-.3-3.7-1.6-2.3-1.5-3.9-1.3-3.8.3-1.4 1.7-2.5-1.6-6.2-1.2-4.3-2.8-4.1.6-1.2 2.3-.9 1.7.1 2-.7 16.7.1 1.3 4.7 1.6 3.9 1.3 2.1 2.1 3.3 3.8-.5 1.8-.9 3.1.9.9-1.6 1.5-3.7 3.5-.3.3-1.1h2.9l-.5 2.3 6.8-.1.1 4.1 1.1 2.4-.9 3.9.4 4 1.8 2.4-.4 7.6 1.4-.6 2.4.2 3.5-1zM1383 261.6l1.5 1.8-2.9.8-2.4 1.1-5.9.8-5.3 1.3-2.4 2.8 1.9 2.7 1.4 3.2-2 2.7.8 2.5-.9 2.3-5.2-.2 3.1 4.2-3.1 1.7-1.4 3.8 1.1 3.9-1.8 1.8-2.1-.6-4 .9-.2 1.7h-4.1l-2.3 3.7.8 5.4-6.6 2.7-3.9-.6-.9 1.4-3.4-.8-5.3 1-9.6-3.3 3.9-5.8-1.1-4.1-4.3-1.1-1.2-4.1-2.7-5.1 1.6-3.5-2.5-1 .5-4.7.6-8 5.9 2.5 3.9-.9.4-2.9 4-.9 2.6-2-.2-5.1 4.2-1.3.3-2.2 2.9 1.7 1.6.2h3l4.3 1.4 1.8.7 3.4-2 2.1 1.2.9-2.9 3.2.1.6-.9-.2-2.6 1.7-2.2 3.3 1.4-.1 2 1.7.3.9 5.4 2.7 2.1 1.5-1.4 2.2-.6 2.5-2.9 3.8.5z" />
</svg>
